<?xml version="1.0" encoding="iso-8859-1"?>
<svg version="1.1" xmlns="http://www.w3.org/2000/svg" xmlns:xlink="http://www.w3.org/1999/xlink" 
	 viewBox="0 0 205 80" xml:space="preserve">
      <path style="fill:#cb3837;" d="M0 0h205v68.571H102.5V80H56.944V68.571H0V0zm11.389 57.143h22.778V22.857h11.389v34.286h11.389V11.429H11.389v45.714zm56.944-45.714v57.143h22.778V57.143h22.778V11.429H68.333zm22.778 11.429H102.5v22.857H91.111V22.857zm34.167-11.428v45.714h22.778V22.857h11.389v34.286h11.389V22.857h11.389v34.286h11.389V11.429h-68.333z"/>
      <path style="fill:#fff;" d="M11.389 57.143h22.778V22.858h11.389v34.286h11.389V11.429H11.389zm56.944-45.714v57.143h22.778V57.143h22.778V11.429H68.333zM102.5 45.715H91.111V22.858H102.5v22.857zm22.778-34.286v45.714h22.778V22.858h11.389v34.286h11.389V22.858h11.389v34.286h11.389V11.429z"/>
</svg>