<?xml version="1.0" encoding="UTF-8" standalone="no"?><!DOCTYPE svg PUBLIC "-//W3C//DTD SVG 1.1//EN" "http://www.w3.org/Graphics/SVG/1.1/DTD/svg11.dtd"><svg width="100%" height="100%" viewBox="0 0 540 210" version="1.1" xmlns="http://www.w3.org/2000/svg" xmlns:xlink="http://www.w3.org/1999/xlink" xml:space="preserve" xmlns:serif="http://www.serif.com/" style="fill-rule:evenodd;clip-rule:evenodd;stroke-linejoin:round;stroke-miterlimit:2;"><path d="M0,0l540,0l0,180l-270,0l0,30l-120,0l0,-30l-150,0l0,-180Zm30,150l60,0l0,-90l30,0l0,90l30,0l0,-120l-120,0l0,120Zm300,-120l0,120l60,0l0,-90l30,0l0,90l30,0l0,-90l30,0l0,90l30,0l0,-120l-180,0Zm-150,0l0,150l60,0l0,-30l60,0l0,-120l-120,0Zm60,30l30,0l0,60l-30,0l0,-60Z" style="fill:currentColor;"/></svg>