<?xml version="1.0" encoding="UTF-8" standalone="no"?>
<!DOCTYPE svg PUBLIC "-//W3C//DTD SVG 1.1//EN" "http://www.w3.org/Graphics/SVG/1.1/DTD/svg11.dtd">
<svg width="100%" height="100%" viewBox="0 0 245 245" version="1.1" xmlns="http://www.w3.org/2000/svg" xmlns:xlink="http://www.w3.org/1999/xlink" xml:space="preserve" xmlns:serif="http://www.serif.com/" style="fill-rule:evenodd;clip-rule:evenodd;stroke-linejoin:round;stroke-miterlimit:2;">
    <g transform="matrix(1,0,0,1,-5.572912,0.565354)">
        <g transform="matrix(3.060678,0,0,3.060678,5.572912,-0.565354)">
            <path d="M0,9.802C-0,7.202 1.033,4.709 2.871,2.871C4.709,1.033 7.202,-0 9.802,0L70.198,0C72.798,-0 75.291,1.033 77.129,2.871C78.967,4.709 80,7.202 80,9.802L80,70.198C80,72.798 78.967,75.291 77.129,77.129C75.291,78.967 72.798,80 70.198,80L9.802,80C7.202,80 4.709,78.967 2.871,77.129C1.033,75.291 -0,72.798 -0,70.198L0,9.802Z" style="fill:rgb(247,223,30);"/>
            <path d="M36,63L36,37L43,37L43,63C43,73 29,79 21,67L27,63C30,69 36,67 36,63ZM66,46C62,40.5 57,43 57,46.5C57,52 73.5,51 73.5,63C73,77 53.5,76.5 47.5,66L53.5,62.5C58,69.5 66,67 66,63C65.5,56 50,59.5 50,46.5C49.5,36.5 64.5,31 71.5,42.5L66,46" style="fill:rgb(50,50,50);"/>
        </g>
    </g>
</svg>
