<?xml version="1.0" encoding="UTF-8" standalone="no"?>
<!DOCTYPE svg PUBLIC "-//W3C//DTD SVG 1.1//EN" "http://www.w3.org/Graphics/SVG/1.1/DTD/svg11.dtd">
<svg width="100%" height="100%" viewBox="0 0 37 33" version="1.1" xmlns="http://www.w3.org/2000/svg" xmlns:xlink="http://www.w3.org/1999/xlink" xml:space="preserve" xmlns:serif="http://www.serif.com/" style="fill-rule:evenodd;clip-rule:evenodd;stroke-linejoin:round;stroke-miterlimit:2;">
    <g transform="matrix(1,0,0,1,-0.87,-1)">
        <path d="M16.4,21.74C16.49,21.58 16.54,21.32 16.54,21.06L6.6,21.06C5.55,21.06 4.69,20.2 4.69,19.15L4.69,6.73C4.69,5.68 5.55,4.82 6.6,4.82L21.88,4.82C22.93,4.82 23.35,5.56 22.82,6.47L20.14,11.03L24.57,11.03L26.11,8.41C27.06,6.79 27.12,4.92 26.26,3.41C25.4,1.9 23.76,1 21.88,1L6.6,1C3.44,1 0.87,3.57 0.87,6.73L0.87,19.15C0.87,22.31 3.44,24.88 6.6,24.88L14.55,24.88L16.4,21.74Z" style="fill:rgb(23,205,229);fill-rule:nonzero;"/>
        <path d="M31.43,12.94C32.48,12.94 33.34,13.8 33.34,14.85L33.34,27.27C33.34,28.32 32.48,29.18 31.43,29.18L16.15,29.18C15.1,29.18 14.68,28.44 15.21,27.53L18.05,22.7C18.58,21.79 18.58,20.31 18.05,19.41L15.21,14.58C14.68,13.67 15.1,12.93 16.15,12.93L31.43,12.93M31.43,9.11L16.15,9.11C14.27,9.11 12.63,10.01 11.77,11.52C10.91,13.03 10.96,14.9 11.92,16.52L14.59,21.06L11.92,25.6C10.97,27.22 10.91,29.09 11.77,30.6C12.63,32.11 14.27,33.01 16.15,33.01L31.43,33.01C34.59,33.01 37.16,30.44 37.16,27.28L37.16,14.86C37.16,11.7 34.59,9.13 31.43,9.13L31.43,9.11Z" style="fill:rgb(255,102,226);fill-rule:nonzero;"/>
    </g>
</svg>
