<?xml version="1.0" encoding="UTF-8" standalone="no"?><!DOCTYPE svg PUBLIC "-//W3C//DTD SVG 1.1//EN" "http://www.w3.org/Graphics/SVG/1.1/DTD/svg11.dtd"><svg width="100%" height="100%" viewBox="0 0 1226 1491" version="1.1" xmlns="http://www.w3.org/2000/svg" xmlns:xlink="http://www.w3.org/1999/xlink" xml:space="preserve" xmlns:serif="http://www.serif.com/" style="fill-rule:evenodd;clip-rule:evenodd;stroke-linecap:round;stroke-linejoin:round;stroke-miterlimit:1.5;"><path d="M1029.016,118.811c6.521,1.197 11.828,5.934 13.754,12.278c1.926,6.344 0.15,13.232 -4.605,17.853c-54.306,52.779 -181.677,176.568 -208.65,202.783c-3.258,3.166 -7.607,4.96 -12.15,5.011c-28.013,0.312 -131.641,1.468 -173.251,1.932c-9.683,0.108 -17.485,7.971 -17.519,17.654c-0.129,37.211 -0.433,125.255 -0.617,178.365c-0.025,7.17 4.274,13.648 10.89,16.41c6.616,2.762 14.245,1.265 19.326,-3.794c102.254,-101.809 433.345,-431.46 535.378,-533.049c5.073,-5.051 12.687,-6.552 19.298,-3.806c6.611,2.747 10.919,9.202 10.919,16.361c0,83.693 0,264.692 0,303.289c0,4.695 -1.864,9.199 -5.182,12.521c-38.371,38.412 -278.448,278.745 -336.19,336.549c-6.899,6.906 -6.911,18.091 -0.029,25.013c57.706,58.032 297.96,299.645 336.248,338.148c3.301,3.32 5.154,7.811 5.154,12.492l0,326.825c-0,7.241 -4.406,13.753 -11.128,16.446c-6.721,2.693 -14.405,1.025 -19.405,-4.213c-101.648,-106.493 -427.871,-448.264 -528.734,-553.935c-4.972,-5.209 -12.603,-6.891 -19.304,-4.253c-6.701,2.638 -11.139,9.069 -11.227,16.27c-1.314,107.974 -4.745,389.91 -6.462,530.989c-0.102,8.357 -6.03,15.507 -14.225,17.154c-8.194,1.647 -16.425,-2.657 -19.747,-10.327c-60.209,-138.984 -183.171,-422.823 -197.932,-456.895c-0.963,-2.223 -1.46,-4.62 -1.46,-7.043c0,-44.295 0,-476.004 0,-569.519c0,-4.715 -1.879,-9.235 -5.221,-12.56c-3.342,-3.325 -7.872,-5.181 -12.586,-5.157c-54.612,0.282 -221.464,1.142 -311.355,1.605c-7.817,0.04 -14.737,-5.047 -17.029,-12.521c-2.292,-7.473 0.584,-15.566 7.079,-19.916c116.437,-77.977 403.826,-270.439 448.86,-300.598c3.834,-2.567 8.518,-3.538 13.056,-2.705c54.107,9.931 403.14,73.99 514.045,94.345Z" style="fill:url(#_Linear1);stroke:#4d4d4d;stroke-width:8px;"/><defs><linearGradient id="_Linear1" x1="0" y1="0" x2="1" y2="0" gradientUnits="userSpaceOnUse" gradientTransform="matrix(1057.622861,0,0,1177.854629,40.166667,713.936501)"><stop offset="0" style="stop-color:#783ff5;stop-opacity:1"/><stop offset="0.47" style="stop-color:#6e62ee;stop-opacity:1"/><stop offset="1" style="stop-color:#55bddc;stop-opacity:1"/></linearGradient></defs></svg>