<?xml version="1.0" encoding="UTF-8" standalone="no"?><!DOCTYPE svg PUBLIC "-//W3C//DTD SVG 1.1//EN" "http://www.w3.org/Graphics/SVG/1.1/DTD/svg11.dtd"><svg width="100%" height="100%" viewBox="0 0 3717 4438" version="1.1" xmlns="http://www.w3.org/2000/svg" xmlns:xlink="http://www.w3.org/1999/xlink" xml:space="preserve" xmlns:serif="http://www.serif.com/" style="fill-rule:evenodd;clip-rule:evenodd;stroke-linejoin:round;stroke-miterlimit:2;"><g><path d="M2889.158,1248.158c-18.246,92.25 -71.371,174.55 -149.429,231.775l-558.975,409.354c91.471,9.804 176.6,54.296 232.9,131.183c54.054,73.858 73.667,166.208 55.079,259.975c-8.342,41.954 -24.196,81.667 -45.954,118.058c17.075,-0.487 34.2,-0.196 51.321,1.754c95.033,10.633 177.137,57.175 231.192,130.987c54.104,73.813 73.713,166.208 55.079,259.975c-18.246,92.25 -71.371,174.55 -149.475,231.775l-17.512,12.829l1.854,0.096c95.033,10.588 177.138,57.125 231.192,130.937c111.083,151.671 68.737,372.275 -94.4,491.8l-666.008,487.75c-256.462,187.821 -552.487,278.95 -839.342,278.95c-387.888,0.05 -759.092,-166.65 -993.208,-486.333c-152.842,-208.7 -230.458,-460.137 -224.458,-727.037l28.346,-1493.933c3.658,-190.7 165.429,-355.496 360.713,-367.3c97.958,-5.904 188.796,26.638 256.508,91.617c65.421,62.737 100.446,148.062 98.692,240.217l-7.854,412.525l1591.358,-1165.371c78.154,-57.225 172.55,-83.033 266.121,-72.542c95.033,10.633 177.137,57.125 231.192,130.988c54.104,73.858 73.713,166.162 55.079,259.975l-0.008,-0.004Zm-207.092,153.088c58.346,-42.733 97.912,-103.813 111.425,-172.017c13.221,-66.688 -0.342,-131.817 -38.1,-183.383c-37.758,-51.567 -95.812,-84.154 -163.333,-91.667c-69.275,-7.854 -139.379,11.562 -197.675,54.296l-1670.875,1223.471c-15.025,10.929 -34.833,12.442 -51.321,3.95c-16.442,-8.588 -26.638,-25.708 -26.296,-44.246l9.708,-510.971c1.267,-64.642 -23.125,-124.304 -68.642,-167.967c-47.858,-45.908 -112.496,-68.833 -183.088,-64.642c-145.671,8.829 -266.367,130.742 -269.046,271.829l-28.392,1494.033c-5.513,245.438 65.567,476.188 205.629,667.425c375.496,512.729 1136.442,596.296 1696.246,186.358l666.008,-487.75c119.767,-87.762 152.696,-247.242 73.371,-355.496c-37.758,-51.567 -95.762,-84.154 -163.329,-91.667c-69.225,-7.658 -139.379,11.562 -197.675,54.296c-0.05,0.05 -0.05,0.05 -0.096,0.05l-162.454,118.987c-8.683,6.392 -18.783,9.417 -28.783,9.417c-15.025,0 -29.854,-6.879 -39.371,-19.954c-15.904,-21.708 -11.171,-52.25 10.537,-68.154l386.717,-283.196c58.346,-42.733 97.958,-103.862 111.475,-172.062c13.221,-66.688 -0.342,-131.817 -38.1,-183.383c-37.758,-51.612 -95.812,-84.154 -163.333,-91.667c-69.225,-8 -139.379,11.562 -197.675,54.296l-394.375,288.804c-4.975,3.658 -10.442,5.95 -16.05,7.463c-1.854,0.487 -3.758,0.587 -5.658,0.879c-2.392,0.392 -4.683,1.121 -7.075,1.121c-1.025,0 -2,-0.633 -3.025,-0.683c-4.929,-0.292 -9.513,-1.562 -14.146,-3.317c-1.95,-0.733 -3.95,-1.075 -5.804,-2.096c-6.246,-3.367 -12,-7.758 -16.442,-13.854c-15.904,-21.708 -11.221,-52.25 10.537,-68.154l447.992,-328.079c58.346,-42.733 97.958,-103.863 111.475,-172.062c13.221,-66.688 -0.342,-131.817 -38.05,-183.383c-79.325,-108.204 -241.242,-125.033 -361.054,-37.321l-447.992,328.079c-21.808,15.954 -52.25,11.221 -68.154,-10.537c-15.904,-21.708 -11.221,-52.25 10.537,-68.154l447.992,-328.079l765.775,-560.829l-0.017,0.017Z" style="stroke:#000;stroke-width:17.38px;"/><path d="M2235.783,762.067c-15.417,0 -30.588,-7.271 -40.054,-20.879l-313.538,-449.404c-15.417,-22.1 -10,-52.492 12.1,-67.908c22.246,-15.417 52.542,-10 67.908,12.1l313.538,449.404c15.367,22.1 10,52.492 -12.1,67.908c-8.488,5.95 -18.246,8.783 -27.854,8.783l0,-0.004Z" style="fill:#b186ff;fill-rule:nonzero;stroke:#000;stroke-width:16.67px;"/><path d="M3177.183,2111.304c-15.417,0 -30.588,-7.271 -40.054,-20.879l-313.537,-449.404c-15.367,-22.1 -10,-52.492 12.1,-67.908c22.246,-15.467 52.542,-10 67.908,12.1l313.537,449.404c15.367,22.1 10,52.492 -12.1,67.908c-8.537,5.95 -18.246,8.783 -27.854,8.783l-0,-0.004Z" style="fill:#b186ff;fill-rule:nonzero;stroke:#000;stroke-width:16.67px;"/><path d="M3083.367,866.758c-15.417,0 -30.588,-7.271 -40.054,-20.879c-15.367,-22.1 -10,-52.492 12.1,-67.908l449.404,-313.538c22.196,-15.467 52.542,-10 67.908,12.1c15.367,22.1 10,52.492 -12.1,67.908l-449.404,313.538c-8.537,5.95 -18.246,8.783 -27.854,8.783l0,-0.004Z" style="fill:#b186ff;fill-rule:nonzero;stroke:#000;stroke-width:16.67px;"/><path d="M3629.317,1404.221c-2.829,0 -5.708,-0.246 -8.588,-0.779l-539.508,-96.058c-26.537,-4.733 -44.2,-30.05 -39.467,-56.542c4.733,-26.492 30.1,-44.442 56.542,-39.467l539.508,96.058c26.538,4.733 44.2,30.05 39.467,56.542c-4.196,23.612 -24.783,40.246 -47.954,40.246Z" style="fill:#b186ff;fill-rule:nonzero;stroke:#000;stroke-width:16.67px;"/><path d="M2645.867,671.863c-2.829,0 -5.708,-0.246 -8.633,-0.779c-26.492,-4.733 -44.15,-30.05 -39.417,-56.542l96.058,-539.508c4.683,-26.492 29.517,-44.492 56.592,-39.467c26.492,4.733 44.15,30.05 39.417,56.542l-96.058,539.508c-4.196,23.663 -24.783,40.246 -47.954,40.246l-0.004,0Z" style="fill:#b186ff;fill-rule:nonzero;stroke:#000;stroke-width:16.67px;"/><path d="M2682.067,1401.246l-765.775,560.829l-447.992,328.079c-21.758,15.904 -26.442,46.442 -10.538,68.154c15.904,21.758 46.346,26.492 68.154,10.538l447.992,-328.079c119.817,-87.717 281.733,-70.883 361.054,37.321c37.713,51.567 51.271,116.692 38.05,183.383c-13.513,68.2 -53.125,129.329 -111.475,172.062l-447.992,328.079c-21.758,15.904 -26.442,46.442 -10.537,68.154c4.438,6.1 10.196,10.488 16.442,13.854c1.854,1.025 3.854,1.367 5.804,2.096c4.633,1.758 9.221,3.025 14.146,3.317c1.025,0.05 2,0.683 3.025,0.683c2.392,0 4.683,-0.733 7.075,-1.121c1.904,-0.292 3.804,-0.392 5.658,-0.879c5.608,-1.513 11.075,-3.804 16.05,-7.463l394.375,-288.804c58.296,-42.733 128.45,-62.3 197.675,-54.296c67.517,7.513 125.571,40.054 163.333,91.667c37.758,51.567 51.321,116.692 38.1,183.383c-13.513,68.2 -53.125,129.329 -111.475,172.062l-386.717,283.196c-21.708,15.904 -26.442,46.442 -10.538,68.154c9.513,13.075 24.342,19.954 39.371,19.954c10,0 20.1,-3.025 28.783,-9.417l162.454,-118.988c0.05,0 0.05,0 0.096,-0.05c58.296,-42.733 128.45,-61.958 197.675,-54.296c67.567,7.513 125.571,40.1 163.329,91.667c79.325,108.254 46.396,267.729 -73.371,355.496l-666.008,487.75c-559.804,409.937 -1320.75,326.371 -1696.246,-186.358c-140.062,-191.238 -211.142,-421.988 -205.629,-667.425l28.392,-1494.033c2.683,-141.088 123.375,-263 269.046,-271.829c70.592,-4.196 135.229,18.733 183.087,64.642c45.517,43.662 69.908,103.325 68.642,167.967l-9.708,510.971c-0.342,18.537 9.854,35.662 26.296,44.246c16.487,8.488 36.296,6.975 51.321,-3.95l1670.875,-1223.471c58.296,-42.733 128.4,-62.15 197.675,-54.296c67.517,7.512 125.571,40.1 163.333,91.667c37.758,51.567 51.321,116.692 38.1,183.383c-13.513,68.2 -53.079,129.279 -111.425,172.017l0.017,-0.017Z" style="fill:#b186ff;stroke:#000;stroke-width:17.38px;stroke-linecap:round;stroke-miterlimit:1.5;"/></g></svg>