<?xml version="1.0" encoding="UTF-8" standalone="no"?><!DOCTYPE svg PUBLIC "-//W3C//DTD SVG 1.1//EN" "http://www.w3.org/Graphics/SVG/1.1/DTD/svg11.dtd"><svg  viewBox="0 0 11625 1421" version="1.1" xmlns="http://www.w3.org/2000/svg" xmlns:xlink="http://www.w3.org/1999/xlink" xml:space="preserve" xmlns:serif="http://www.serif.com/" style="fill-rule:evenodd;clip-rule:evenodd;stroke-linecap:round;stroke-linejoin:round;stroke-miterlimit:1.5;"><path id="E" d="M11603.749,104.208c7.121,0.871 13.014,5.95 14.926,12.865c1.912,6.915 -0.535,14.3 -6.198,18.705l-234.623,182.52c-3.137,2.44 -7.003,3.755 -10.977,3.733l-297.891,-1.661c-4.706,-0.026 -9.229,1.821 -12.571,5.134c-3.342,3.313 -5.229,7.82 -5.244,12.526l-0.715,226.778c-0.03,9.555 7.522,17.412 17.071,17.761l271.819,9.915c5.094,0.186 9.862,2.557 13.084,6.508l128.397,157.442c4.177,5.122 5.156,12.144 2.538,18.213c-2.617,6.069 -8.396,10.177 -14.988,10.654l-391.465,28.362c-5.684,0.412 -10.823,3.533 -13.81,8.387c-2.986,4.854 -3.455,10.849 -1.259,16.108l136.488,326.966l404.768,2.505c7.375,0.046 13.95,4.655 16.507,11.572c2.558,6.917 0.563,14.695 -5.008,19.527l-231.974,201.233c-3.208,2.783 -7.309,4.321 -11.555,4.334l-310.921,0.946c-6.766,0.021 -12.953,-3.814 -15.945,-9.883l-225.655,-457.764c-1.192,-2.418 -1.816,-5.075 -1.826,-7.771l-3.188,-902.16c-0.018,-5.084 2.149,-9.931 5.95,-13.308c3.801,-3.377 8.87,-4.957 13.916,-4.34l770.347,94.194Zm-1847.806,-64.353c0.07,-7.734 5.148,-14.529 12.546,-16.785c7.398,-2.257 15.404,0.546 19.779,6.924l200.69,292.557c2.017,2.94 3.099,6.419 3.107,9.984l0.858,400.85c0.021,9.77 7.947,17.679 17.716,17.679l312.522,0c4.744,-0 9.29,-1.903 12.62,-5.282c3.33,-3.379 5.165,-7.953 5.095,-12.697l-10.516,-710.671c-0.117,-7.937 5.058,-14.983 12.667,-17.244c7.608,-2.262 15.793,0.813 20.029,7.525l207.328,328.448c1.785,2.829 2.734,6.105 2.735,9.45l0.416,1042.374c0.003,8.441 -5.949,15.712 -14.224,17.376c-8.275,1.664 -16.575,-2.742 -19.835,-10.528l-190.752,-455.678c-2.758,-6.588 -9.201,-10.875 -16.342,-10.875l-323,-0c-9.632,0 -17.499,7.695 -17.712,17.324l-9.608,433.8c-0.184,8.323 -6.139,15.395 -14.308,16.994c-8.17,1.599 -16.351,-2.705 -19.66,-10.344l-198.685,-458.634c-0.984,-2.272 -1.482,-4.726 -1.459,-7.203l7.995,-885.343Zm-271.767,288.292c5.179,3.127 8.404,8.681 8.553,14.73c0.149,6.048 -2.799,11.754 -7.817,15.133l-195.335,131.499c-5.848,3.937 -13.473,4.032 -19.418,0.242l-301.848,-192.437c-6.417,-4.091 -14.729,-3.627 -20.651,1.152l-149.065,120.302c-4.1,3.309 -6.514,8.27 -6.588,13.538l-7.195,512.06c-0.042,3.023 0.689,6.006 2.125,8.666l118.328,219.162c3.1,5.741 9.103,9.314 15.627,9.3l155.759,-0.334c5.268,-0.011 10.257,-2.366 13.614,-6.425l186.626,-225.654c3.438,-4.157 8.583,-6.521 13.977,-6.422l199.686,3.66c6.799,0.125 12.926,4.13 15.769,10.307c2.843,6.177 1.899,13.436 -2.428,18.682l-357.36,433.141c-3.345,4.054 -8.317,6.414 -13.572,6.441l-334.477,1.761c-6.66,0.035 -12.776,-3.668 -15.833,-9.584l-238.028,-460.721c-1.308,-2.532 -1.986,-5.342 -1.976,-8.192l1.957,-578.85c0.018,-5.266 2.377,-10.251 6.439,-13.603l396.841,-327.557c5.802,-4.789 13.996,-5.392 20.436,-1.503l515.853,311.506Zm-1336.982,-77.782c8.064,4.87 10.907,15.199 6.471,23.51l-104.073,194.936c-2.356,4.414 -6.469,7.625 -11.322,8.841c-4.853,1.216 -9.994,0.324 -14.153,-2.457l-280.32,-187.409c-6.444,-4.308 -14.941,-3.927 -20.973,0.941l-148.836,120.117c-4.1,3.309 -6.514,8.27 -6.588,13.538l-7.195,512.06c-0.042,3.023 0.689,6.006 2.125,8.666l118.328,219.162c3.1,5.741 9.103,9.314 15.627,9.3l155.759,-0.334c5.268,-0.011 10.257,-2.366 13.614,-6.425l188.028,-227.349c2.612,-3.158 4.048,-7.123 4.064,-11.221l1.616,-408.204c0.011,-2.861 0.715,-5.676 2.052,-8.206l207.851,-393.422c3.804,-7.199 12.025,-10.879 19.928,-8.92c7.903,1.959 13.453,9.053 13.453,17.196l0,806.017c-0,4.115 -1.432,8.101 -4.051,11.275l-376.671,456.547c-3.345,4.054 -8.317,6.414 -13.572,6.441l-334.477,1.761c-6.66,0.035 -12.776,-3.668 -15.833,-9.584l-238.028,-460.721c-1.308,-2.532 -1.986,-5.342 -1.976,-8.192l1.957,-578.85c0.018,-5.266 2.377,-10.251 6.439,-13.603l396.841,-327.557c5.802,-4.789 13.996,-5.392 20.436,-1.503l403.48,243.648Zm-1263.427,-142.681c6.652,1.01 12.158,5.7 14.212,12.107c2.054,6.407 0.302,13.424 -4.523,18.114l-207.689,201.848c-3.258,3.166 -7.607,4.96 -12.15,5.011l-173.251,1.932c-9.683,0.108 -17.485,7.971 -17.519,17.654l-0.617,178.365c-0.025,7.17 4.274,13.648 10.89,16.41c6.616,2.762 14.245,1.265 19.326,-3.794l535.378,-533.049c5.073,-5.051 12.687,-6.552 19.298,-3.806c6.611,2.747 10.919,9.202 10.919,16.361l0,303.289c0,4.695 -1.864,9.199 -5.182,12.521l-336.19,336.549c-6.899,6.906 -6.911,18.091 -0.029,25.013l336.248,338.148c3.301,3.32 5.154,7.811 5.154,12.492l-0,326.825c-0,7.241 -4.406,13.753 -11.128,16.446c-6.721,2.693 -14.405,1.025 -19.405,-4.213l-528.734,-553.935c-4.972,-5.209 -12.603,-6.891 -19.304,-4.253c-6.701,2.638 -11.139,9.069 -11.227,16.27l-6.462,530.989c-0.102,8.357 -6.03,15.507 -14.225,17.154c-8.194,1.647 -16.425,-2.657 -19.747,-10.327l-197.933,-456.898c-0.962,-2.221 -1.459,-4.616 -1.46,-7.037l-0.266,-902.058c-0.002,-5.164 2.25,-10.071 6.165,-13.438c3.915,-3.367 9.105,-4.858 14.21,-4.083l615.24,93.394Zm-2774.399,-85.532c0.006,-7.9 5.242,-14.841 12.836,-17.017c7.594,-2.176 15.712,0.939 19.901,7.636l198.33,317.092c1.773,2.834 2.708,6.113 2.696,9.456l-0.659,190.707c-0.025,7.17 4.274,13.648 10.89,16.41c6.616,2.762 14.245,1.265 19.326,-3.794l535.378,-533.049c5.073,-5.051 12.687,-6.552 19.298,-3.806c6.611,2.747 10.919,9.202 10.919,16.361l0,303.289c0,4.695 -1.864,9.199 -5.182,12.521l-336.19,336.549c-6.899,6.906 -6.911,18.091 -0.029,25.013l336.248,338.148c3.301,3.32 5.154,7.811 5.154,12.492l0,326.825c-0,7.241 -4.406,13.753 -11.128,16.446c-6.721,2.693 -14.405,1.025 -19.405,-4.213l-528.734,-553.935c-4.972,-5.209 -12.603,-6.891 -19.304,-4.253c-6.701,2.638 -11.139,9.069 -11.227,16.27l-6.462,530.989c-0.102,8.357 -6.03,15.507 -14.225,17.154c-8.194,1.647 -16.425,-2.657 -19.747,-10.327l-197.929,-456.889c-0.965,-2.227 -1.462,-4.629 -1.46,-7.056l0.706,-899.019Zm1707.301,-6.598c6.433,0.045 12.336,3.574 15.421,9.22c3.085,5.645 2.868,12.519 -0.568,17.958l-407.615,645.247c-3.448,5.458 -3.654,12.359 -0.538,18.013c3.116,5.654 9.061,9.165 15.516,9.165l300.964,0c5.655,0 10.971,-2.7 14.306,-7.266c3.336,-4.567 4.291,-10.451 2.571,-15.839l-97.532,-305.485c-1.56,-4.887 -0.925,-10.211 1.741,-14.595l138.738,-228.107c3.496,-5.749 9.947,-9.021 16.651,-8.445c6.704,0.575 12.503,4.898 14.969,11.159l175.626,445.852c0.816,2.072 1.234,4.278 1.233,6.505l-0.528,797.755c-0.006,8.51 -6.062,15.815 -14.424,17.396c-8.362,1.582 -16.668,-3.006 -19.781,-10.927l-175.488,-446.437c-2.646,-6.731 -9.118,-11.178 -16.35,-11.235l-344.014,-2.686c-9.712,-0.076 -17.674,7.682 -17.852,17.392l-7.94,434.141c-0.152,8.336 -6.097,15.438 -14.276,17.056c-8.179,1.618 -16.38,-2.687 -19.694,-10.337l-198.062,-457.196c-1.191,-2.75 -1.666,-5.757 -1.378,-8.74l36.598,-380.214c0.299,-3.109 1.415,-6.083 3.234,-8.622l376.073,-524.796c3.353,-4.679 8.77,-7.437 14.526,-7.396l207.874,1.465Zm-2139.489,-7.67c6.433,0.045 12.336,3.574 15.421,9.22c3.085,5.645 2.868,12.519 -0.568,17.958l-407.615,645.247c-3.448,5.458 -3.654,12.359 -0.538,18.013c3.116,5.654 9.061,9.165 15.516,9.165l300.964,0c5.655,0 10.971,-2.7 14.306,-7.266c3.336,-4.567 4.291,-10.451 2.571,-15.839l-97.532,-305.485c-1.56,-4.887 -0.925,-10.211 1.741,-14.595l138.738,-228.107c3.496,-5.749 9.947,-9.021 16.651,-8.445c6.704,0.575 12.503,4.898 14.969,11.159l175.626,445.852c0.816,2.072 1.234,4.278 1.233,6.505l-0.528,797.755c-0.006,8.51 -6.062,15.815 -14.424,17.396c-8.362,1.582 -16.668,-3.006 -19.781,-10.927l-175.488,-446.437c-2.646,-6.731 -9.118,-11.178 -16.35,-11.235l-344.014,-2.686c-9.712,-0.076 -17.674,7.682 -17.852,17.392l-7.94,434.141c-0.152,8.336 -6.097,15.438 -14.276,17.056c-8.179,1.618 -16.38,-2.687 -19.694,-10.337l-198.062,-457.196c-1.191,-2.75 -1.666,-5.757 -1.378,-8.74l36.598,-380.214c0.299,-3.109 1.415,-6.083 3.234,-8.622l376.073,-524.796c3.353,-4.679 8.77,-7.437 14.526,-7.396l207.874,1.465Zm-1942.568,17.831c0.068,-7.801 5.231,-14.639 12.715,-16.841c7.484,-2.202 15.527,0.75 19.81,7.27l482.553,734.742c3.282,4.997 8.862,8.001 14.84,7.991c5.978,-0.011 11.547,-3.035 14.811,-8.043l479.654,-736.003c4.272,-6.555 12.337,-9.531 19.843,-7.323c7.506,2.208 12.674,9.079 12.716,16.902l7.244,1369.743c0.044,8.374 -5.78,15.635 -13.964,17.408c-8.184,1.773 -16.492,-2.425 -19.918,-10.066l-203.75,-454.395c-1.095,-2.443 -1.623,-5.101 -1.543,-7.777l4.858,-162.817c0.233,-7.802 -4.668,-14.837 -12.067,-17.323c-7.399,-2.486 -15.553,0.164 -20.078,6.524l-254.052,357.093c-3.237,4.55 -8.43,7.307 -14.012,7.441c-5.582,0.134 -10.901,-2.372 -14.352,-6.762l-287.879,-366.177c-4.635,-5.896 -12.48,-8.234 -19.586,-5.839c-7.107,2.395 -11.935,9.005 -12.056,16.504l-10.121,628.998c-0.138,8.593 -6.423,15.847 -14.909,17.208c-8.486,1.361 -16.724,-3.565 -19.542,-11.683l-158.235,-455.851c-0.666,-1.917 -0.997,-3.935 -0.979,-5.965l8,-914.959Zm-492.105,7.642c-0.084,-7.88 5.048,-14.868 12.592,-17.147c7.544,-2.279 15.686,0.698 19.98,7.307l208.673,321.152c1.873,2.883 2.867,6.248 2.861,9.686l-1.963,1036.676c-0.016,8.392 -5.918,15.622 -14.137,17.318c-8.219,1.696 -16.5,-2.608 -19.836,-10.309l-197.122,-455.025c-0.938,-2.165 -1.434,-4.495 -1.459,-6.854l-9.588,-902.803Zm-254.52,75.678c6.521,1.197 11.828,5.934 13.754,12.278c1.926,6.344 0.15,13.232 -4.605,17.853l-208.65,202.783c-3.258,3.166 -7.607,4.96 -12.15,5.011l-173.223,1.932c-9.694,0.108 -17.501,7.987 -17.519,17.682l-1.94,1024.457c-0.016,8.392 -5.918,15.622 -14.137,17.318c-8.219,1.696 -16.5,-2.608 -19.836,-10.309l-197.083,-454.935c-0.963,-2.223 -1.46,-4.62 -1.46,-7.043l0,-569.519c0,-4.715 -1.879,-9.235 -5.221,-12.56c-3.342,-3.325 -7.872,-5.181 -12.586,-5.157l-311.355,1.605c-7.817,0.04 -14.737,-5.047 -17.029,-12.521c-2.292,-7.473 0.584,-15.566 7.079,-19.916l448.86,-300.598c3.834,-2.567 8.518,-3.538 13.056,-2.705l514.045,94.345Z"/></svg>