<?xml version="1.0" encoding="UTF-8" standalone="no"?>
<!DOCTYPE svg PUBLIC "-//W3C//DTD SVG 1.1//EN" "http://www.w3.org/Graphics/SVG/1.1/DTD/svg11.dtd">
<svg width="100%" height="100%" viewBox="0 0 60 65" version="1.1" xmlns="http://www.w3.org/2000/svg" xmlns:xlink="http://www.w3.org/1999/xlink" xml:space="preserve" xmlns:serif="http://www.serif.com/" style="fill-rule:evenodd;clip-rule:evenodd;stroke-linejoin:round;stroke-miterlimit:2;">
    <g transform="matrix(1,0,0,1,0,-15)">
        <g id="A">
            <g>
                <path d="M60,15L0,15L5,72.5L30,80L55,72.5L60,15" style="fill:rgb(228,77,38);"/>
                <path d="M22.366,65.21L14.152,62.746L13.482,55.045L13.261,52.5L21.261,52.5L21.697,57.509L30,60L30,67.5L22.366,65.21ZM30,32.5L19.522,32.5L20.174,40L30,40L30,47.5L12.826,47.5L10.87,25L30,25L30,32.5Z" style="fill:rgb(235,235,235);"/>
                <path d="M51.739,52.5L52.174,47.5L54.13,25L54.565,20L30,20L30,75L45.179,70.446L50.313,68.906L51.653,53.504L51.739,52.5Z" style="fill:rgb(241,101,41);"/>
                <path d="M30,32.5L48.478,32.5L49.13,25L30,25L30,32.5ZM39.174,47.5L30,47.5L30,40L47.826,40L47.174,47.5L46.739,52.5L46.518,55.045L45.848,62.746L37.634,65.21L30,67.5L30,60L38.304,57.509L38.739,52.5L39.174,47.5Z" style="fill:white;"/>
            </g>
        </g>
    </g>
</svg>
