<?xml version="1.0" encoding="UTF-8" standalone="no"?>
<!DOCTYPE svg PUBLIC "-//W3C//DTD SVG 1.1//EN" "http://www.w3.org/Graphics/SVG/1.1/DTD/svg11.dtd">
<svg width="100%" height="100%" viewBox="0 0 256 245" version="1.1" xmlns="http://www.w3.org/2000/svg" xmlns:xlink="http://www.w3.org/1999/xlink" xml:space="preserve" xmlns:serif="http://www.serif.com/" style="fill-rule:evenodd;clip-rule:evenodd;stroke-linejoin:round;stroke-miterlimit:2;">
    <g>
        <g transform="matrix(0.471455,0,0,0.555202,6.600368,6.662427)">
            <path d="M465.307,-12C482.199,-12 498.4,-6.302 510.345,3.841C522.289,13.984 529,27.741 529,42.086C529,126.674 529,289.326 529,373.914C529,388.259 522.289,402.016 510.345,412.159C498.4,422.302 482.199,428 465.307,428C360.815,428 154.185,428 49.693,428C32.801,428 16.6,422.302 4.655,412.159C-7.289,402.016 -14,388.259 -14,373.914C-14,289.326 -14,126.674 -14,42.086C-14,27.741 -7.289,13.984 4.655,3.841C16.6,-6.302 32.801,-12 49.693,-12C154.185,-12 360.815,-12 465.307,-12Z" style="fill:rgb(242,242,242);"/>
        </g>
        <g transform="matrix(0.785156,0,0,0.785156,27.5,26.597488)">
            <path d="M129.741,243.648C157.741,143.539 156.928,143.085 177.165,71.706L182.029,74.522C184.678,76.038 186.842,74.79 186.842,71.744L186.842,37.696C192.218,18.893 196.416,4.352 197.658,0L219.578,0L256,33.728L232.077,54.4L250.17,73.965L130.944,243.648C130.368,244.608 129.555,244.39 129.741,243.648ZM142.765,27.866C143.853,27.866 144.723,28.461 144.723,29.21L144.723,46.65C144.723,47.379 143.846,47.974 142.765,47.974L113.325,47.974C112.237,47.974 111.36,47.379 111.36,46.643L111.36,29.197C111.36,28.461 112.237,27.853 113.318,27.853L142.758,27.853L142.765,27.866ZM179.117,8.55L146.72,27.251C147.091,27.827 147.322,28.486 147.322,29.203L147.322,46.656C147.322,47.552 146.963,48.371 146.387,49.024L179.11,67.917C181.338,69.21 183.168,68.154 183.168,65.581L183.168,10.893C183.168,8.314 181.35,7.264 179.117,8.55ZM108.755,46.656L108.755,29.197C108.755,28.48 108.986,27.821 109.357,27.251L76.96,8.538C74.733,7.258 72.902,8.307 72.902,10.88L72.902,65.568C72.902,68.141 74.733,69.197 76.966,67.904L109.683,49.011C109.107,48.352 108.762,47.539 108.762,46.643L108.755,46.656ZM125.056,243.648L126.259,243.648C98.266,143.539 99.072,143.085 78.835,71.706L73.971,74.522C71.328,76.038 69.158,74.79 69.158,71.744L69.158,37.696C63.782,18.899 59.584,4.352 58.342,0L36.429,0L0,33.728L23.917,54.4L5.824,73.971L125.056,243.648ZM127.11,84.41C131.995,84.41 135.955,80.45 135.955,75.565C135.955,70.68 131.995,66.72 127.11,66.72C122.226,66.72 118.266,70.68 118.266,75.565C118.266,80.45 122.226,84.41 127.11,84.41ZM127.11,136.986C131.995,136.986 135.955,133.026 135.955,128.141C135.955,123.256 131.995,119.296 127.11,119.296C122.226,119.296 118.266,123.256 118.266,128.141C118.266,133.026 122.226,136.986 127.11,136.986ZM127.11,189.574C131.995,189.574 135.955,185.614 135.955,180.73C135.955,175.845 131.995,171.885 127.11,171.885C122.226,171.885 118.266,175.845 118.266,180.73C118.266,185.614 122.226,189.574 127.11,189.574Z" style="fill-rule:nonzero;"/>
        </g>
    </g>
</svg>
