<?xml version="1.0" encoding="UTF-8" standalone="no"?><!DOCTYPE svg PUBLIC "-//W3C//DTD SVG 1.1//EN" "http://www.w3.org/Graphics/SVG/1.1/DTD/svg11.dtd"><svg width="100%" height="100%" viewBox="0 0 6584 4038" version="1.1" xmlns="http://www.w3.org/2000/svg" xmlns:xlink="http://www.w3.org/1999/xlink" xml:space="preserve" xmlns:serif="http://www.serif.com/" style="fill-rule:evenodd;clip-rule:evenodd;stroke-linejoin:round;stroke-miterlimit:2;"><path d="M0,237.46l0,-36.913c6.316,2.784 12.553,5.668 18.708,8.653c264,127.967 432.246,378.125 535.85,555.208c74.583,127.483 119.746,246.542 142.167,374.717c7.125,40.817 12.167,83.05 17.008,123.9c10.867,91.717 22.142,186.525 58.067,271.042c95.092,223.633 279.217,187.5 474.121,149.25c44.554,-8.75 90.621,-17.783 135.171,-23.4c144.742,-18.309 281.942,22.383 367.025,108.934c72.192,73.358 101.85,172.808 85.775,287.558c-36.533,261.35 -259.558,494.383 -456.092,625.367c-10.263,6.792 -25.8,15.625 -43.825,25.875c-66.283,37.642 -189.733,107.75 -194.175,168.825c-1.258,17.858 8.3,34.5 29.342,50.858c53.3,41.508 123.333,55.583 197.508,70.433c52.25,10.5 106.284,21.325 153.608,42.808c254.267,115.483 346.8,343.833 282.954,698.175c-14.446,80.083 -42.358,156.333 -69.371,230.125c-8.29,22.626 -16.677,45.513 -24.706,68.625l-35.468,-0c9.249,-27.109 19.049,-53.855 28.716,-80.25c26.533,-72.333 53.954,-147.292 67.875,-224.458c60.708,-336.992 -25.6,-553.383 -263.833,-661.617c-43.825,-19.9 -93.633,-29.867 -146.325,-40.442c-74.708,-14.975 -151.975,-30.483 -211.508,-76.867c-30.108,-23.483 -44.308,-50.333 -42.192,-79.833c5.733,-78.983 129.308,-149.175 211.1,-195.642c17.408,-9.883 32.504,-18.475 41.742,-24.617c190.475,-126.908 406.5,-351.725 441.492,-602.009c14.525,-104.042 -11.884,-193.725 -76.458,-259.358c-77.8,-79.1 -204.55,-116.175 -339.033,-99.166c-43.375,5.5 -88.867,14.408 -132.896,23.033c-199.413,39.142 -405.642,79.633 -511.346,-169.025c-37.842,-88.95 -49.358,-186.2 -60.55,-280.275c-4.8,-40.408 -9.767,-82.15 -16.725,-122.025c-21.683,-124.108 -65.55,-239.625 -138.058,-363.525c-101.4,-173.3 -265.75,-418.017 -521.567,-542c-1.362,-0.66 -2.729,-1.315 -4.1,-1.965Zm1852.093,3800.04c5.033,-81.651 20.724,-165.06 35.67,-244.5c12.254,-65 23.813,-126.45 29.588,-184.55c0.692,-6.917 1.467,-14.408 2.271,-22.3c10.096,-96.684 27.029,-258.542 -26.971,-333.5l-0.525,-1.217c-22.867,-95.825 -86.35,-173.625 -147.792,-248.9c-21.85,-26.775 -44.433,-54.442 -64.617,-82.317c-82.675,-114.217 -52.117,-204.35 0.125,-319.175c26,-57.25 56.642,-113.4 86.221,-167.683c41.096,-75.317 83.538,-153.241 114.263,-235.025c91.1,-242.517 27.467,-476.4 -162.075,-595.825c-130.608,-82.317 -281.325,-69.134 -398.067,-48.467c-16.808,3.017 -33.817,6.392 -51.8,9.975c-115.925,23.067 -247.392,49.234 -343.058,-38.167c-43.175,-39.475 -74.992,-96.808 -94.6,-170.458c-10.783,-40.441 -16.892,-82.642 -22.792,-123.408c-0.975,-6.759 -1.583,-18.558 -2.275,-32.225c-1.875,-36.625 -4.966,-97.858 -19.492,-109.175l-0.9,-1.058c-13.833,-25.758 -19.775,-55.375 -26.042,-86.708c-6.592,-32.958 -13.383,-67.017 -30.267,-95.992l-0.408,-1.217c-8.225,-60.991 -69.992,-141.6 -119.633,-206.342c-15.175,-19.775 -29.458,-38.408 -40.358,-54.158c-136.411,-196.89 -317.069,-416.972 -568.558,-520.538l0,-7.306c254.341,103.708 436.599,325.574 574.046,524.019c10.829,15.583 25.071,34.184 40.162,53.875c49.967,65.184 112.096,146.2 120.892,208.858c17.167,29.792 24.05,64.217 30.717,97.458c6.108,30.6 11.883,59.525 25.067,84.267c15.142,12.941 18.8,61.117 21.483,113.65c0.691,13.508 1.262,25.183 2.2,31.617c5.9,40.608 11.967,82.6 22.625,122.675c19.283,72.35 50.458,128.625 92.65,167.2c93.183,85.125 222.858,59.325 337.242,36.542c18.025,-3.625 35.075,-7 51.958,-9.975c117.883,-20.908 270.225,-34.175 402.792,49.359c192.342,121.217 257.042,358.233 164.758,603.883c-30.883,82.233 -73.45,160.358 -114.629,235.883c-29.537,54.2 -60.096,110.225 -86.054,167.275c-52.858,116.292 -81.508,200.883 -0.775,312.417c20.058,27.708 42.6,55.3 64.408,82.033c61.733,75.683 125.617,153.933 148.925,250.933c55.017,77.317 38.008,240.158 27.833,337.65c-0.808,7.808 -1.583,15.3 -2.275,22.3c-5.817,58.35 -17.417,119.942 -29.667,185.15c-14.869,79.027 -30.479,162.016 -35.494,243.167l-6.772,-0Zm-734.166,-4037.5c20.176,11.213 44.303,23.015 69.806,35.533c90.867,44.392 203.9,99.692 239.508,179.033c32.058,71.492 -83.054,192.992 -167.075,281.742c-26.167,27.625 -48.75,51.466 -61.442,68.275c-49.358,65.35 -87.65,125.367 -117.108,183.392c-3.992,7.933 -8.583,19.167 -13.833,32.142c-20.308,49.892 -48.142,118.208 -90.742,118.208c-2.117,0 -4.275,-0.167 -6.425,-0.534c-83.583,-13.625 -176.925,-127.808 -238.692,-203.325c-11.633,-14.283 -22.667,-27.75 -32.225,-38.859c-41.217,-47.891 -81.383,-98.025 -120.2,-146.442c-31.775,-39.675 -64.658,-80.692 -97.946,-120.283c-120.233,-143.051 -269.263,-291.909 -481.554,-363.281l0,-7.119c214.887,71.541 365.382,221.761 486.683,366.084c33.325,39.633 66.208,80.692 98.025,120.366c38.817,48.417 78.942,98.467 120.033,146.283c9.65,11.183 20.675,24.692 32.392,38.975c61.117,74.75 153.442,187.75 234.542,200.967c41.087,6.8 70.55,-66.075 89.883,-113.6c5.325,-13.108 9.967,-24.458 14.117,-32.633c29.583,-58.392 68.075,-118.7 117.675,-184.408c12.942,-17.092 35.642,-41.1 61.933,-68.85c78.083,-82.4 196.083,-206.992 165.85,-274.333c-34.625,-77.15 -146.442,-131.833 -236.325,-175.783c-26.042,-12.733 -50.7,-24.775 -71.208,-36.292l-9.388,-5.258l13.715,-0Zm3038.728,0c-6.406,3.13 -12.699,6.196 -18.863,9.2c-10.875,5.333 -21.375,10.458 -31.375,15.383c-70.084,34.383 -141.542,64.208 -210.709,93.017c-178,74.225 -346.041,144.292 -486.833,285.808c-44,44.233 -83.666,94.2 -121.958,142.459c-38.667,48.708 -78.625,99.041 -123.583,144.408c-101.458,102.333 -212.291,167.767 -382.458,225.709c-91.875,38.983 -241.084,14.808 -350.258,-20.833c-89.967,-29.417 -174.279,-76.984 -255.817,-123.009c-40.208,-22.7 -81.792,-46.183 -122.85,-66.692c-36.05,-6.1 -63.717,21.117 -93.059,49.892c-11.842,11.633 -24.083,23.642 -36.9,33.2c-49.442,51.308 -103.725,95.259 -161.458,130.658c-81.625,50.05 -159.509,75.192 -230.917,75.192c-54.612,0 -105.433,-14.65 -151.366,-44.067c-47.084,-30.15 -77.925,-73.483 -89.192,-125.325c-12.825,-58.717 1.092,-125.45 38.125,-183.067c76.417,-118.85 216.913,-187.217 357.992,-174.108c32.383,3.009 76.817,20.584 123.854,39.184c78.817,31.167 176.921,69.942 214.887,34.016c54.767,-51.883 79.717,-167.275 72.179,-248.858c-24.246,-261.559 -254.554,-274.783 -477.288,-287.6c-21.412,-1.225 -42.525,-2.441 -63.108,-3.867c-3.16,-0.221 -6.314,-0.454 -9.464,-0.7l320.575,-0c133.98,32.765 245.718,106.631 262.615,289.067c8.225,88.342 -17.942,215.258 -82.517,276.408c-53.425,50.583 -157.958,9.242 -250.167,-27.217c-44.758,-17.7 -87.033,-34.383 -114.625,-36.95c-128.783,-12.042 -257.033,50.375 -326.775,158.858c-32.233,50.125 -44.475,107.625 -33.575,157.675c9.358,42.925 35.117,78.933 74.504,104.167c95.913,61.4 212.571,50.817 346.763,-31.458c55.708,-34.133 108.117,-76.659 155.8,-126.342l2.2,-1.908c11.308,-8.267 22.542,-19.292 34.425,-30.967c33.158,-32.517 70.796,-69.417 125.158,-58.475l2.158,0.45l1.992,0.975c42.525,21.158 85.208,45.25 126.467,68.567c80.121,45.2 162.967,92 249.758,120.358c103.592,33.817 244.008,57.292 327.3,21.65l1.25,-0.491c165.167,-56.192 272.417,-119.3 370,-217.775c43.667,-44.067 83.084,-93.667 121.166,-141.642c38.875,-49.034 79.125,-99.692 124.417,-145.259c145.5,-146.283 316.583,-217.617 497.708,-293.091c64.897,-27.061 131.875,-54.991 197.248,-86.6l76.573,0Zm-2126.227,4037.5c-25.037,-101.97 -18.498,-212.324 -8.094,-325.375c12.492,-136.475 24.008,-294.433 1.792,-442.216c-16.65,-110.683 -72.225,-210.208 -126.025,-306.483c-10.9,-19.525 -21.808,-39.017 -32.3,-58.508c-104.008,-192.708 -27.958,-380.05 45.65,-561.2c34.017,-83.817 69.217,-170.492 86.633,-257.116c63.55,-316.325 -147.625,-567.592 -366.458,-697.225c-54.692,-32.391 -101.892,-53.958 -154.542,-53.958c-20.508,0 -40.65,3.258 -61.567,9.967c-17.338,5.575 -34.908,11.684 -51.917,17.584c-44.067,15.3 -89.6,31.083 -136.475,39.633c-19.45,3.533 -38.208,5.367 -55.708,5.367c-114.3,-0.042 -184.325,-74.458 -202.475,-215.25c1.1,-13.183 1.833,-26.242 2.525,-38.858c3.013,-55.784 6.138,-113.484 44.758,-157.434l0.575,-0.692l0.892,-0.283c4.234,-1.425 8.95,-2.158 14.079,-2.158c42.687,0 108.438,50.133 156.496,86.717c17.008,12.975 31.733,24.166 42.233,30.758c82.925,51.883 168.658,105.55 259.604,105.55c42.763,0 84.55,-11.35 127.729,-34.75c51.225,-27.667 100.3,-60.909 147.741,-93.017c51.233,-34.708 104.25,-70.558 160.242,-99.733c74.092,-38.575 147.417,-56.517 230.75,-56.517c64.292,0 130.208,10.659 191.892,22.175c94.158,17.617 172.083,25.8 245.25,25.8c65.792,0 126.917,-6.675 186.75,-20.35c232.708,-53.258 374.041,-206.658 523.666,-369.058c65.25,-70.841 132.75,-144.125 208.666,-208.7c128.5,-109.375 288.25,-172.525 442.792,-233.642c106.125,-41.95 215.917,-85.367 314.292,-143.309l8.121,-5.216l12.409,0c-5.791,3.737 -11.458,7.391 -17.03,10.95c-98.958,58.275 -208.958,101.766 -315.333,143.842c-153.959,60.875 -313.25,123.858 -440.917,232.508c-75.625,64.325 -143,137.408 -208.083,208.125c-150.375,163.167 -292.333,317.3 -527.083,371.059c-60.375,13.791 -121.917,20.5 -188.25,20.5c-73.583,0 -151.9,-8.216 -246.467,-25.875c-61.358,-11.475 -126.95,-22.092 -190.675,-22.092c-82.233,0 -154.583,17.741 -227.658,55.783c-55.667,28.975 -108.483,64.742 -159.592,99.325c-47.613,32.225 -96.8,65.509 -148.275,93.383c-44.225,23.884 -87.033,35.525 -130.937,35.525c-92.854,0 -179.404,-54.158 -263.146,-106.566c-10.783,-6.759 -25.592,-18.025 -42.758,-31.092c-47.283,-36.008 -112.025,-85.367 -152.429,-85.367c-4.071,0 -7.771,0.525 -11.146,1.55c-36.5,42.15 -39.55,98.3 -42.483,152.667c-0.692,12.692 -1.383,25.8 -2.525,38.325c12.292,94.808 56.275,208.666 195.8,208.666c17.092,0 35.442,-1.75 54.525,-5.208c46.35,-8.467 91.633,-24.175 135.458,-39.392c17.05,-5.9 34.667,-12 52.083,-17.617c21.608,-6.917 42.4,-10.3 63.6,-10.3c54.158,0 102.292,21.933 157.958,54.892c220.825,130.817 433.883,384.525 369.592,704.308c-17.542,87.275 -52.858,174.234 -87,258.342c-76.333,187.983 -148.433,365.558 -45.933,555.458c10.492,19.492 21.354,38.942 32.267,58.433c54.075,96.8 109.983,196.9 126.783,308.792c22.3,148.525 10.783,306.967 -1.75,443.783c-10.378,113.054 -16.913,223.299 8.328,324.792l-6.9,0Zm-1202.085,-4037.5c134.233,77.449 310.637,195.379 260.391,348.517c-29.417,89.725 -95.825,156.942 -177.608,179.891c-12.292,3.416 -25.108,5.167 -38.167,5.167c-64.575,0 -137.575,-42.475 -217,-126.217c-51.883,-54.692 -98.675,-114.95 -143.967,-173.175c-63.336,-81.504 -128.647,-165.573 -208.097,-234.183l50.064,-0c69.251,65.275 127.649,140.42 184.483,213.508c44.758,57.617 91.025,117.192 141.808,170.692c72.833,76.825 137.692,115.766 192.708,115.766c10.008,0 19.817,-1.3 29.133,-3.95c71,-19.891 128.867,-78.933 154.825,-157.992c47.409,-144.533 -163.366,-263.067 -289.266,-333.866l-7.402,-4.159l68.094,0Zm3094.122,-0c-25.496,10.436 -50.984,20.627 -76.34,30.767c-74.375,29.708 -151.25,60.425 -225.417,96.033c-132.333,63.517 -238.333,148.15 -333.792,266.317c-19.25,23.841 -38.417,48.583 -57,72.55c-68.25,88.217 -138.917,179.4 -230.667,247.15c-90.833,67.1 -207.041,105.55 -318.667,105.55c-176.208,0 -303.275,-91.225 -348.641,-250.325c-21.608,-75.808 -29.05,-155.8 -36.258,-233.117c-6.3,-67.908 -12.858,-138.1 -28.929,-205.233c-9.606,-40.068 -21.857,-85.359 -38.438,-129.692l7.139,0c16.258,43.879 28.319,88.516 37.807,128.1c16.196,67.583 22.746,138.058 29.096,206.175c7.167,77.025 14.609,156.7 36.05,231.934c44.475,155.967 169.175,245.442 342.175,245.442c110.25,0 224.958,-38 314.708,-104.242c91,-67.183 161.375,-158.041 229.333,-245.85c18.583,-24.009 37.791,-48.792 57.083,-72.675c96.084,-118.975 202.875,-204.183 336.167,-268.15c74.291,-35.683 151.291,-66.441 225.75,-96.233c20.479,-8.186 40.824,-16.318 61.015,-24.5l17.824,0Zm-180.947,0c-15.798,5.856 -31.619,11.749 -47.393,17.708c-218.083,82.4 -372.125,197.35 -514.833,384.233c-94.667,123.984 -253.167,331.467 -445.958,331.467l-0.042,0c-31.875,0 -64.171,-5.658 -95.792,-16.808c-190.158,-66.975 -211.4,-295.817 -228.492,-479.692c-4.392,-47.409 -8.583,-92.208 -15.133,-132c-2.693,-33.162 -5.599,-68.991 -4.848,-104.908l6.741,0c-0.775,35.633 2.11,71.221 4.773,104.092c6.558,39.758 10.708,84.633 15.142,132.167c17.783,191.441 37.925,408.442 223.984,473.991c30.996,10.909 62.458,16.442 93.625,16.442c189.542,0 346.75,-205.85 440.667,-328.817c143.541,-187.983 298.417,-303.55 517.875,-386.433c10.117,-3.837 20.272,-7.647 30.439,-11.442l19.246,0Zm-252.809,0c-133.449,60.634 -233.157,137.401 -319.959,243.983c-13.5,16.566 -28.542,36.75 -46,60.1c-81.916,109.783 -205.667,275.633 -336.75,275.633l-0.042,0c-27.416,0 -54.292,-7.283 -79.875,-21.683c-114.833,-64.616 -132.417,-189.492 -149.417,-310.3c-2.958,-20.875 -5.75,-40.575 -9.042,-60.1c-5.077,-75.971 3.303,-137.04 23.74,-187.633l7.48,0c-20.941,50.204 -29.597,110.952 -24.512,186.817c3.25,19.325 6.125,40 8.958,59.975c16.792,119.183 34.167,242.392 146.042,305.383c24.583,13.834 50.375,20.833 76.625,20.833c127.75,0.042 250.333,-164.225 331.417,-272.95c16.791,-22.458 32.583,-43.658 46.166,-60.3c84.647,-103.891 181.347,-179.655 309.147,-239.758l16.021,0Zm-274.448,-0c-50.564,42.773 -92.895,95.242 -134.261,146.533c-28.667,35.525 -58.292,72.225 -90.166,105.183c-53.417,55.216 -109.417,85.608 -157.709,85.608c-41.833,0 -96.666,-22.909 -120.416,-132.158c-11.815,-77.318 6.647,-147.918 51.061,-205.167l8.609,-0c-45.665,56.577 -64.863,126.88 -53.087,203.95c18.041,82.8 57.375,126.667 113.833,126.667c45.792,0 101.542,-30.442 152.875,-83.575c31.708,-32.759 61.208,-69.342 89.791,-104.7c39.957,-49.569 80.801,-100.204 129.157,-142.342l10.312,-0Zm1653.268,0l6.97,0c7.98,28.147 12.188,58.397 12.168,90.058c-0.083,161.166 -132.709,247.841 -249.75,324.3c-116.292,75.966 -203.625,147.658 -279.542,269.891c-49.167,119.225 -19.459,244.35 9.292,365.358c7.458,31.533 15.208,64.167 21.292,95.866c33.208,172.692 -106.417,232.342 -229.625,284.992c-44.375,18.967 -91.167,36.542 -140.625,55.133c-213,79.959 -454.292,170.617 -531.041,399.625c-36.917,110.1 -5.667,222.409 24.5,331.05c9.041,32.475 18.416,66.042 25.666,98.717c32.292,146.283 12.5,268.35 -60.417,373.208c-78.75,113.283 -195.333,185.75 -308.083,255.817c-126.958,78.942 -258.292,160.566 -334.875,300.742c-42.75,78.208 -75.583,162.6 -107.333,244.225c-23.667,60.625 -48.125,123.367 -76.417,183.267c-62.916,132.846 -129.231,255.462 -197.398,365.25l-7.875,0c68.815,-110.487 135.706,-234.036 199.19,-368.183c28.25,-59.65 52.667,-122.233 76.208,-182.775c31.875,-81.792 64.833,-166.342 107.75,-244.958c77.458,-141.8 209.5,-223.875 337.25,-303.258c112.125,-69.75 228.083,-141.808 306.167,-253.992c71.75,-103.192 91.125,-223.55 59.208,-367.875c-7.125,-32.516 -16.416,-66 -25.458,-98.391c-30.417,-109.575 -62,-222.9 -24.417,-334.958c77.708,-232.059 320.625,-323.325 535,-403.809c49.458,-18.558 96.125,-36.092 140.375,-55.017c120.875,-51.633 257.917,-110.192 225.667,-277.55c-6.084,-31.575 -13.75,-64.083 -21.25,-95.575c-28.959,-122.033 -58.917,-248.25 -8.709,-369.958c76.834,-123.817 164.75,-196 281.833,-272.5c121.25,-79.183 246.667,-161.092 246.75,-318.642c0,-31.715 -4.319,-61.978 -12.471,-90.058Zm-2213.03,4037.5c17.463,-88.744 46.004,-170.009 74.334,-242.375c17.625,-45 34.541,-90.958 50.917,-135.409c87.875,-238.766 170.833,-464.275 378.542,-623.942c30.125,-23.15 61.958,-46.308 92.75,-68.642c189.417,-137.617 385.292,-279.908 359.917,-548.383c-6.041,-63.433 -19.208,-126.833 -32,-188.108c-40.75,-196.05 -79.25,-381.225 120.875,-532.067c106.75,-80.483 233.375,-126.425 375.875,-174.033c39.166,-13.1 81.083,-23.884 125.333,-35.275c95.792,-24.7 194.833,-50.208 270.083,-101.116c113.875,-77.025 66.75,-180.583 21.25,-280.758c-8.292,-18.317 -16.917,-37.275 -24.334,-55.584c-40.416,-100.466 -75.166,-245.241 -10.583,-364.383c57.292,-105.75 161.125,-170.284 261.5,-232.709c60.875,-37.8 123.75,-76.941 174.708,-124.592c110.184,-102.912 108.226,-213.595 85.992,-330.125l6.847,-0c22.384,117.947 24.124,230.091 -88.214,335.05c-51.5,48.1 -114.75,87.4 -175.833,125.408c-99.625,61.933 -202.667,125.975 -259.125,230.183c-63.333,116.825 -28.958,259.525 10.917,358.642c7.292,18.192 15.917,37.067 24.25,55.342c46.625,102.7 94.958,208.9 -23.625,289.1c-76.25,51.558 -175.833,77.233 -272.125,102.05c-44.208,11.392 -86,22.133 -124.917,35.158c-141.917,47.4 -268,93.142 -373.958,173.017c-196.667,148.275 -158.584,331.417 -118.292,525.308c12.75,61.483 25.958,125.042 32.041,188.883c25.709,272.258 -171.708,415.692 -362.667,554.442c-30.708,22.3 -62.5,45.408 -92.625,68.525c-206.125,158.483 -288.75,383.091 -376.291,620.883c-16.417,44.508 -33.333,90.592 -51,135.675c-28.058,71.655 -56.311,152.088 -73.694,239.833l-6.848,0Zm3928.834,-3951.068c-79.995,92.128 -192.444,170.372 -331.041,227.134c-55.084,22.584 -114.083,42.558 -171.125,61.85c-184.25,62.375 -374.666,126.867 -488.542,292.967c-36.375,53.058 -70.125,110.192 -102.667,165.484c-101.083,171.35 -205.667,348.558 -405.042,431.158c-57.875,23.967 -105.083,35.15 -148.542,35.15c-64.667,0 -123.666,-25.508 -185.708,-80.275c-113.25,-99.933 -183.584,-207.075 -209.125,-318.442c-21,-125.367 40.834,-236.208 188.958,-339.033c35.709,-24.859 75.125,-48.133 113.125,-70.675c146.958,-87.075 299,-177.125 283.292,-377.442c-2.992,-38.123 -10.022,-76.612 -17.524,-114.308l6.848,-0c7.39,37.462 14.314,75.736 17.343,113.817c16.042,204.466 -137.792,295.575 -286.542,383.708c-37.917,22.458 -77.167,45.733 -112.709,70.392c-145.75,101.242 -206.708,209.925 -186.208,332.241c25.166,109.775 94.792,215.692 206.958,314.692c60.792,53.634 118.417,78.617 181.292,78.617c42.583,0 88.875,-11.025 145.917,-34.666c197.375,-81.75 301.375,-257.975 401.875,-428.392c32.625,-55.333 66.417,-112.583 102.959,-165.808c115.042,-167.967 306.625,-232.825 491.916,-295.533c56.917,-19.284 115.834,-39.225 170.75,-61.725c140.554,-57.575 253.958,-137.333 333.542,-231.228l0,10.318Zm0,1987.439c-43.844,29.019 -95.494,49.33 -153.708,60.129c-57.583,10.7 -120.833,16.116 -187.875,16.116c-187.417,0 -403.334,-42.483 -592.292,-116.542c-205.833,-80.608 -445.958,-253.458 -503.083,-496.742c-12.542,-117.391 76.708,-213.417 155.5,-298.175c17.084,-18.433 33.292,-35.85 48.083,-53.1c97.5,-113.367 179.292,-233.892 239.667,-326.258c59.083,-90.45 142.416,-203.45 262.625,-275.267c101,-60.258 207.041,-93.916 319.25,-129.517l14.25,-4.517c120.425,-38.219 260.629,-85.323 397.584,-146.99l0,7.302c-136.365,61.224 -275.75,108.074 -395.542,146.114l-14.25,4.517c-111.917,35.483 -217.625,69.017 -317.875,128.867c-118.333,70.683 -198.083,177.775 -260.417,273.159c-60.542,92.525 -142.5,213.333 -240.25,326.983c-14.875,17.333 -31.083,34.792 -48.25,53.3c-77.792,83.658 -165.916,178.509 -153.792,292.442c56.459,240.358 294.75,411.625 498.917,491.616c188.25,73.775 403.25,116.092 589.875,116.092c66.625,0 129.458,-5.375 186.666,-15.992c58.961,-10.935 111.034,-31.783 154.917,-61.666l0,8.129Zm-0,1056.372c-20.744,-12.674 -41.587,-25.51 -62.125,-38.402c-13.125,-8.258 -27.625,-16.717 -43,-25.675c-67.292,-39.225 -151.042,-88.092 -178.375,-158.158l-0.25,-0.817c-16.423,-135.143 169.121,-294.264 283.75,-378.656l-0,8.289c-113.685,84.17 -292.585,238.869 -277.167,369.15c26.708,67.667 109.167,115.758 175.458,154.417c15.417,8.95 29.875,17.417 43.167,25.758c19.336,12.161 38.968,24.265 58.542,36.238l-0,7.856Zm-1144.558,907.256c-1.419,-154.16 143.735,-333.621 242.1,-455.258c11.542,-14.325 22.375,-27.666 32.041,-39.958c9.917,-12.533 19.958,-25.308 30.208,-38.408c154.208,-197.1 346.084,-442.467 620.584,-380.983c77.058,17.252 149.74,43.127 219.625,75.9l-0,37.261c-72.246,-35.063 -147.288,-62.534 -226.917,-80.361c-253.917,-56.925 -438.583,179.233 -586.917,368.933c-10.292,13.1 -20.375,25.959 -30.292,38.492c-9.75,12.375 -20.667,25.883 -32.292,40.283c-89.691,110.814 -235.766,291.541 -234.597,434.1l-33.544,0Zm-1316.948,0c80.749,-80.713 149.3,-184.39 213.881,-323.417c30.292,-64.95 56.333,-133.958 83.833,-207.033c77.875,-206.625 158.458,-420.25 340.417,-544.025c178,-121.058 413,-187.708 661.875,-187.708c57.458,0 115.208,3.583 171.708,10.7c153.5,19.333 337.5,58.517 398.125,190.675l0.542,1.383l0.167,1.467c7.167,91.508 -63.459,186.358 -125.792,270.016c-21.166,28.483 -41.125,55.258 -56.083,79.508c-96.292,129.883 -202.958,266.275 -326.417,417.558c-11.25,13.667 -22.375,27.5 -33.542,41.417c-73.501,91.508 -149.516,185.986 -250.332,249.458l-33.177,0c3.598,-1.924 7.144,-3.909 10.635,-5.958c105.333,-61.75 183.875,-159.496 259.875,-254.083c11.125,-13.917 22.292,-27.75 33.5,-41.5c123.375,-151.033 229.916,-287.258 325.625,-416.333c14.875,-24.25 35.167,-51.35 56.542,-80.075c60.166,-80.808 128.333,-172.4 122.583,-257.2c-57.875,-123.575 -235.666,-160.933 -384.375,-179.65c-55.75,-7.042 -112.791,-10.617 -169.583,-10.617c-245.541,0 -477.208,65.633 -652.416,184.817c-177.667,120.808 -257.25,331.908 -334.25,536.092c-27.583,73.4 -53.708,142.658 -84.208,208.258c-62.422,134.122 -128.503,235.961 -205.699,316.25l-23.433,0Zm-1269.611,0c1.249,-25.885 0.538,-52.585 -0.175,-78.458c-0.542,-20.208 -1.083,-41.042 -0.791,-61.541l0.458,-3.579c13.875,-59.171 32.667,-137.129 54.875,-214.754c47,-164.308 102.5,-300.375 169.625,-416.017c66.333,-114.258 170.416,-193.967 271.083,-271.033c101.083,-77.392 205.542,-157.392 268.625,-271.45c59.834,-107.992 73.5,-229.817 43.125,-383.3c-5.708,-28.883 -12.834,-58.058 -20.417,-88.942c-27.583,-113 -56.25,-229.858 -16.042,-340.95c98,-270.75 465.416,-340.166 708.5,-386.067l12.375,-2.316c142.833,-27.058 290.833,-41.583 465.916,-45.858l2.167,-0.042l2.208,0.533c122.792,29.984 212.583,134.075 291.667,225.908c12.291,14.2 24.333,28.159 36.208,41.542c205,230.8 399,358.242 648.625,426.192c75.5,20.55 153.375,37.6 228.667,54.117c68.208,14.975 138.75,30.433 207.583,48.5c88.542,23.2 143,62.3 157.5,113c13.25,46.633 -7.167,99.041 -60.709,155.725c-133.708,141.433 -294.958,160.925 -449.333,160.925c-43.541,0 -88.291,-1.75 -131.583,-3.458c-43.459,-1.667 -88.459,-3.416 -132.333,-3.416c-32.375,0 -61.25,0.933 -88.292,2.892c-373.125,26.808 -654.042,118.158 -834.958,271.442c-141.916,120.317 -211.666,282.55 -285.458,454.342c-35.25,82.033 -71.708,166.917 -116.625,246.017c-83.746,147.394 -204.729,271.178 -361.286,370.05l-65.113,-0c174.975,-100.343 308.146,-229.86 397.274,-386.733c43.917,-77.392 80.042,-161.375 114.959,-242.675c72.125,-167.725 146.666,-341.233 294.625,-466.633c186.417,-158 473.875,-251.958 854.25,-279.342c27.75,-1.992 57.458,-2.967 90.625,-2.967c44.625,0 89.875,1.75 133.625,3.458c43,1.708 87.417,3.417 130.292,3.417c146.917,0 300,-18.233 425,-150.475c44.833,-47.442 62.583,-88.908 52.792,-123.333c-11.042,-38.65 -57.292,-69.7 -133.709,-89.759c-68.208,-17.867 -138.417,-33.241 -206.292,-48.133c-75.666,-16.608 -153.958,-33.775 -230.291,-54.525c-256.375,-69.784 -455.167,-200.242 -664.792,-436.242c-12.042,-13.55 -24.25,-27.625 -36.542,-41.95c-75.458,-87.484 -160.833,-186.525 -272.166,-214.725c-172.25,4.275 -317.917,18.642 -458.333,45.208l-12.334,2.317c-235.625,44.516 -591.75,111.775 -683.208,364.542c-36.708,101.525 -9.375,213.342 17.083,321.458c7.333,29.908 14.917,60.792 20.75,90.408c32,161.742 17.083,290.817 -46.709,406.133c-66.5,120.192 -173.833,202.392 -277.583,281.858c-98.042,75.075 -199.5,152.708 -262.5,261.192c-65.708,113.275 -120.125,246.825 -166.333,408.442c-21.75,76.183 -40.292,152.854 -54.042,211.433c-0.291,19.209 0.25,39.042 0.792,58.25c0.676,25.973 1.428,52.782 0.227,79.375l-33.552,0Zm3663.334,-4037.5c-38.139,63.921 -88.188,113.566 -131.342,148.65c-135.708,110.433 -301.75,157.467 -462.291,202.958c-96.542,27.35 -196.292,55.625 -287.375,97.333c-116.125,53.142 -143.459,133.709 -181.208,245.2c-5.959,17.459 -12.042,35.483 -18.75,54.033c-34.75,96.275 -87.875,218.058 -191.625,306.4c-78.125,66.441 -172.875,103.067 -266.75,103.067l-0.083,0c-153.167,0 -278.083,-92.283 -334.25,-246.825l-0.959,-2.525l-0.083,-2.725c-4.084,-134.967 36.917,-217.284 146.375,-293.658c62.666,-43.784 132.583,-76.133 200.208,-107.425c19.375,-8.95 38.667,-17.9 57.792,-27.058l11.375,-5.492c92.959,-44.475 180.833,-86.55 198.417,-191.325c-5.125,-71.45 -24,-142.216 -42.25,-210.617c-6.15,-23.011 -12.399,-46.375 -18.194,-69.992l34.527,-0c5.138,20.624 10.595,41.091 16,61.283c18.875,70.6 38.334,143.6 43.459,218.959l0.167,1.908l-0.334,1.875c-19.625,123.575 -120.125,171.708 -217.291,218.225l-11.417,5.45c-19.25,9.275 -38.708,18.267 -58.25,27.3c-66.25,30.683 -134.75,62.417 -195.083,104.45c-99.25,69.3 -135.25,140.583 -132.084,262.417c51.542,139.158 164.25,222.166 301.959,222.166c85.917,0 173,-33.775 245.083,-95.091c97.75,-83.175 148.458,-199.834 181.833,-292.2c6.583,-18.309 12.583,-36.133 18.459,-53.425c37.417,-110.392 69.833,-205.766 199.041,-264.933c93.459,-42.767 194.417,-71.408 292.167,-99.117c157.292,-44.558 319.917,-90.659 450.292,-196.7c36.688,-29.852 78.698,-70.829 112.82,-122.567l39.646,-0Zm-162.943,0c-97.405,129.315 -287.81,209.465 -471.398,245.083c-74.542,14.484 -131.583,20.917 -184.792,20.917c-79.292,0 -146.333,-15.058 -205,-46.058c-73.86,-65.375 -126.421,-137.952 -159.099,-219.942l7.238,0c32.303,79.94 83.786,150.765 155.611,214.441c57.042,30.033 123.125,44.842 201.25,44.842c52.792,0 109.458,-6.383 183.583,-20.792c180.219,-34.964 367.047,-113.026 464.168,-238.492l8.439,-0Zm-125.902,0c-92.064,92.86 -251.792,152.717 -416.788,152.717l-0.167,0c-158.763,-0.032 -283.56,-55.604 -351.973,-152.717l8.289,-0c67.81,92.901 189.434,145.967 343.684,145.967l0.167,0c160.538,0.036 315.825,-57.002 407.303,-145.967l9.485,0Zm-263.889,-0c-41.424,12.55 -86.818,19.541 -132.94,19.541c-45.788,0 -87.57,-6.762 -124.079,-19.541l22.61,-0c30.722,8.418 64.77,12.825 101.469,12.825c36.933,0 73.378,-4.526 107.61,-12.825l25.33,-0Zm620.518,932.024l0,37.125c-9.789,63.99 -8.483,125.756 -0,186.483l-0,41.377c-16.287,-85.561 -19.979,-172.751 0,-264.985Zm-979.607,3105.476c-14.172,-39.557 -15.979,-82.748 -5.059,-128.917c27.916,-118.25 115.542,-234.3 186.041,-327.483l4.459,-5.858c229.167,-303.467 463.875,-407.875 717.292,-319.333c26.631,9.314 52.2,19.605 76.875,30.759l0,7.368c-25.36,-11.559 -51.66,-22.194 -79.083,-31.777c-250.375,-87.483 -482.5,16.192 -709.792,317.058l-4.459,5.858c-73.666,97.492 -157.25,208.075 -184.833,324.95c-11.572,48.981 -7.766,91.186 5.771,127.375l-7.211,0Zm152.899,0c-22.148,-33.895 -33.872,-72.163 -34.918,-114.417c-3.833,-145.625 123.542,-320.25 243.917,-435.158c181.088,-172.845 396.81,-217.231 617.708,-130.345l0,18.099c-216.822,-87.406 -428.616,-44.977 -606.167,124.454c-117.75,112.384 -242.333,282.367 -238.792,422.45c1.176,42.83 14.152,81.326 38.725,114.917l-20.474,0Zm139.539,0c-38.587,-38.493 -58.701,-87.246 -59.706,-144.875c-2.375,-132.875 92.792,-254.558 149.75,-315.267c42.292,-45.242 191,-192.3 322.584,-185.542c10.25,0.483 20.167,0.975 29.959,1.383c88.638,4.154 161.686,7.572 244.583,39.063l0,7.214c-82.975,-31.961 -156.041,-35.395 -244.917,-39.527c-9.75,-0.483 -19.708,-0.892 -29.958,-1.467c-2.75,-0.075 -5.625,-0.158 -8.458,-0.158c-126.792,0 -268,139.892 -308.917,183.591c-56.25,59.975 -150.25,180.083 -147.958,310.625c1.083,57.875 21.917,106.458 62,144.292l0.708,0.667l-9.669,0Zm239.27,0c-77.368,-28.982 -132.101,-76.233 -163.559,-141.454l-0.333,-1.213c-9.833,-183.375 125.25,-354.342 321.292,-406.667c32.625,-8.708 66.5,-13.1 100.417,-13.1c64.112,0 129.125,16.041 190.083,45.18l0,7.445c-60.872,-29.571 -125.931,-45.876 -190.083,-45.876c-33.333,0 -66.542,4.317 -98.709,12.858c-192.708,51.433 -325.666,219.158 -316.333,399.075c33.116,68.207 92.603,116.234 177.706,143.75l-20.48,0Zm-6135.434,-3733.182c147.038,67.936 285.628,198.12 413.804,389.048c43.663,65.025 72.763,134.808 100.954,202.275c19.25,46.142 39.192,93.867 63.6,139.725l0.325,1.058c10.742,65.309 19.775,132.325 28.483,197.142c12.05,89.316 24.5,181.642 41.592,271.158c37.35,195.925 171.016,407.558 424.716,359.175c28.2,-5.375 63.071,-14.075 99.975,-23.359c151.408,-37.925 358.725,-89.842 467.208,-6.592c46.508,35.684 70.883,93.917 72.425,173.059c6.187,314.941 -317.542,481.117 -561.558,578.692c-128.542,51.392 -216.192,133.1 -267.992,249.842c-20.512,45.167 -20.867,93.908 -1.092,141.025c23.967,57.008 74.5,104.133 135.208,126.1c69.7,25.191 152.267,34.55 232.058,43.625c183.713,20.833 373.7,42.4 444.046,252.275c67.621,201.806 -14.061,500.809 -168.982,638.933l-10.221,-0c156.9,-134.02 240.602,-434.68 172.857,-636.817c-69.008,-205.808 -256.792,-227.133 -438.433,-247.725c-80.2,-9.108 -163.167,-18.508 -233.558,-43.983c-62.467,-22.583 -114.508,-71.083 -139.125,-129.8c-20.55,-48.867 -20.142,-99.483 1.138,-146.4c52.538,-118.367 141.363,-201.258 271.613,-253.342c242.183,-96.842 563.433,-261.517 557.333,-572.267c-1.513,-77.025 -24.983,-133.5 -69.784,-167.883c-105.917,-81.258 -311.442,-29.783 -461.508,7.808c-36.992,9.242 -71.942,18.025 -100.384,23.442c-112.1,21.358 -213.058,-7.45 -291.992,-83.25c-68.608,-65.958 -118.533,-165.817 -140.542,-281.292c-17.133,-89.684 -29.583,-182.133 -41.633,-271.525c-8.7,-64.575 -17.7,-131.35 -28.358,-196.417c-24.45,-46.016 -44.35,-93.708 -63.6,-139.808c-28.033,-67.175 -57.046,-136.633 -100.342,-201.133c-126.64,-188.668 -263.36,-317.61 -408.233,-385.38l-0,-7.411Zm1231.842,3733.182l-12.046,0c-17.318,-11.798 -34.424,-24.659 -51.305,-38c-121.542,-96.125 -247.842,-178.167 -375.45,-243.917c-103.758,-53.375 -221.067,-68.275 -334.517,-82.684c-119.1,-15.133 -242.267,-30.758 -347.858,-91.391c-43.622,-25.055 -79.183,-60.005 -110.667,-99.226l0,-10.821c32.349,41.348 68.849,78.264 114.008,104.189c104.45,59.975 226.925,75.525 345.333,90.575c114.017,14.492 231.933,29.458 336.75,83.4c128.017,65.917 254.683,148.208 376.508,244.583c19.457,15.389 39.214,30.126 59.242,43.292Zm-1231.842,-320.897c50.967,22.215 112.407,26.216 178.625,27.356c263.217,4.708 561.517,10 809.975,219.083c0.905,0.754 38.122,32.31 77.953,74.458l-9.419,0c-27.705,-29.209 -55.071,-54.357 -72.851,-69.333c-246.617,-207.542 -543.7,-212.833 -805.742,-217.458c-65.937,-1.155 -127.237,-5.092 -178.542,-26.561l0,-7.545Zm0,296.038c14.351,-16.919 30.066,-32.955 47.475,-47.849c195.063,-166.958 524.417,-154.204 730.142,-45.542c59.083,31.25 108.442,69.583 146.604,113.833c1.156,1.333 2.315,2.811 3.477,4.417l-44.893,-0c-32.936,-33.768 -73.467,-63.488 -120.814,-88.458c-191.608,-101.333 -510.942,-114.292 -692.742,41.333c-16.961,14.498 -32.262,30.309 -46.24,47.125l-23.01,0l0,-24.86Zm209.219,24.86c13.446,-9.338 27.377,-17.84 41.747,-25.417c72.183,-38.083 164.025,-59.875 251.958,-59.875c105.366,0 195.649,29.996 259.179,85.292l-10.406,0c-61.932,-51.023 -148.311,-78.625 -248.773,-78.625c-86.875,0 -177.579,21.542 -248.867,59.167c-11.238,5.926 -22.204,12.427 -32.875,19.458l-11.964,0Zm-209.219,-3625.708c175.097,84.784 301.68,259.409 359.042,351.033c133.467,213.175 154.412,419.516 178.667,658.408c2.158,21.317 4.358,42.883 6.675,64.7c26.083,248.125 154.342,530.391 381.959,601.683c95.542,29.909 180.862,-11.725 263.425,-51.925c24.783,-12.083 50.417,-24.575 76.017,-35.034c66.283,-26.975 159.95,-39.875 208.942,-4.35c26.242,19.041 38.167,49.683 35.4,91.1c-8.75,130.658 -181.192,219.725 -301.15,241.375c-25.8,12.575 -53.833,20.267 -80.892,27.708c-31.858,8.792 -64.817,17.825 -94.808,34.958c-47.933,27.3 -92.892,63.267 -133.708,106.933c-124.592,133.258 -282.592,417.883 -176.142,614.333c81.583,150.675 240.475,155.4 408.65,160.367c120.725,3.659 245.558,7.317 337.925,70.8c93.467,64.208 137.813,196.367 110.317,328.933c-25.558,123.225 -104.167,208.975 -210.333,229.479c-13.217,2.621 -26.609,3.829 -40.033,3.829c-100.75,0 -205.2,-66.871 -291.146,-121.916c-9.188,-5.833 -18.146,-11.625 -26.846,-17.083c-19.658,-12.375 -39.225,-24.958 -58.842,-37.583c-80.65,-51.925 -164.025,-105.634 -253.783,-143.717c-69.5,-29.383 -143.717,-42.075 -215.533,-54.283c-58.233,-9.925 -118.45,-20.183 -176.108,-39.383c-135.583,-45.092 -225.667,-130.208 -302.817,-215.583l-4.875,-5.403l0,-10.026c3.274,3.663 6.553,7.313 9.842,10.954c76.529,84.642 165.85,169.108 299.967,213.708c57.167,18.958 117.142,29.217 175.121,39.058c72.188,12.292 146.821,25.067 217.004,54.775c90.292,38.325 173.917,92.117 254.808,144.191c19.563,12.625 39.142,25.25 58.792,37.625c8.708,5.417 17.658,11.208 26.9,17.167c96.35,61.671 216.267,138.333 326.292,117.083c103.392,-19.917 180.058,-103.833 205.042,-224.275c22.413,-108.067 -2.117,-249.592 -107.55,-322.017c-90.733,-62.342 -214.558,-66 -334.35,-69.583c-162.679,-4.8 -330.892,-9.85 -414.342,-163.941c-108.117,-199.542 51.308,-487.467 177.158,-622.108c41.254,-44.15 86.792,-80.525 135.258,-108.192c30.717,-17.5 64.083,-26.7 96.35,-35.567c26.942,-7.408 54.808,-15.058 80.158,-27.508l0.9,-0.283c117.833,-21.117 287.6,-108.075 296.058,-235.267c2.608,-38.941 -8.383,-67.633 -32.592,-85.208c-46.958,-34.016 -137.858,-21.2 -202.516,5.125c-25.392,10.375 -50.9,22.825 -75.6,34.833c-83.742,40.809 -170.292,83.008 -268.35,52.284c-230.55,-72.184 -360.308,-357.05 -386.642,-607.342c-2.317,-21.85 -4.475,-43.416 -6.667,-64.733c-24.175,-238.075 -45.05,-443.642 -177.7,-655.517c-56.61,-90.489 -181.253,-262.645 -353.342,-347.172l-0,-7.445Zm0,93.862c168.308,86.139 318.216,299.2 381.458,454.238c55.342,135.7 62.583,276.933 69.583,413.533c5.333,104.084 10.862,211.709 37.642,316.2c32.058,125.283 93.867,241.492 153.642,353.925c11.275,21.2 22.542,42.433 33.608,63.633c76.667,147.1 84.475,242.15 32.108,391.317c-16.075,45.817 -34.258,91.842 -51.8,136.358c-38.492,97.575 -78.292,198.525 -98.716,303.383c-6.425,32.875 -7.242,73.2 -8.092,115.883c-1.833,93.3 -3.908,199.1 -69.096,250.608l-0.9,0.492c-36.738,14.242 -74.213,21.483 -111.321,21.483c-138.809,-0.07 -259.769,-98.462 -368.117,-203.206l0,-9.352c108.612,105.499 229.822,205.808 368.117,205.808c36.133,0 72.633,-7 108.442,-20.833c62.329,-49.642 64.367,-153.483 66.2,-245.125c0.85,-42.967 1.667,-83.575 8.175,-117.058c20.55,-105.475 60.467,-206.667 99.083,-304.567c17.533,-44.433 35.641,-90.417 51.675,-136.108c51.633,-147.058 43.95,-240.85 -31.7,-385.95c-11.066,-21.241 -22.292,-42.4 -33.608,-63.633c-59.933,-112.758 -121.95,-229.333 -154.221,-355.391c-26.933,-105.142 -32.467,-213.133 -37.796,-317.542c-7,-136.033 -14.2,-276.7 -69.092,-411.3c-62.492,-153.135 -209.897,-363.356 -375.275,-449.405l-0,-7.391Zm6583.333,1383.601c-70.319,103.392 -211.852,151.884 -339.333,161.212c-25.542,1.908 -52.542,2.841 -80.292,2.841l-0.083,0c-328.625,-0.033 -835.292,-136.508 -884.042,-512.491c-22.292,-129.15 97.958,-276.325 194.667,-394.609c25.459,-31.208 49.542,-60.666 67.792,-86.141l16.917,-23.725c103.333,-144.65 210.125,-294.183 372.125,-383.133c81.584,-44.717 257.084,-120.4 398.042,-120.4c60.167,0 108.167,13.667 142.833,40.642c62.083,57.05 42.167,164.675 26.125,251.183c-3.334,18.267 -6.5,35.483 -8.625,50.575c-13.125,96.6 -12.042,205.733 2.834,299.442c12.791,79.958 38.667,158.45 63.75,234.333c9.235,27.987 18.557,56.236 27.292,84.783l0,23.347c-10.476,-35.79 -22.137,-71.125 -33.666,-106.055c-25.125,-76.134 -51.083,-154.825 -63.959,-235.35c-15.042,-94.317 -16.125,-204.183 -2.833,-301.392c2.042,-15.259 5.292,-32.55 8.625,-50.9c15.792,-84.883 35.292,-190.475 -23.875,-244.833c-33.167,-25.883 -79.916,-39.067 -138.5,-39.067c-139.625,0 -313.875,75.158 -394.75,119.592c-160.75,88.175 -267.125,237.141 -369.958,381.142l-16.958,23.725c-18.375,25.675 -42.459,55.216 -68,86.466c-95.875,117.225 -215.042,263.1 -193.208,389.359c48.167,371.833 551.083,506.758 877.375,506.8l0.083,0c27.583,0 54.416,-0.941 79.833,-2.808c129.123,-9.459 272.905,-59.542 339.792,-167.009l0,12.472Zm0,1135.69c-39.78,-42.256 -69.64,-89.68 -78.667,-143.712c1.023,-85.494 34.896,-151.745 78.667,-201.82l0,12.213c-44.166,53.223 -71.151,116.83 -72.084,189.116c8.422,50.007 35.557,94.449 72.084,134.413l0,9.79Zm-3494.899,1012.555c-33.29,-33.958 -54.885,-78.661 -64.101,-133.625c-14.375,-230.325 77.125,-507.908 227.625,-691.258c56.333,-68.608 125,-126.833 191.334,-183.192c111.5,-94.558 226.833,-192.383 281.917,-340.042c46,-123.133 18.083,-257.083 -9.042,-386.642c-30.417,-145.833 -61.917,-296.666 16.625,-426.842c112.375,-186.358 387.209,-284.058 816.958,-290.4c4.625,-0.083 9.292,-0.125 13.917,-0.125c164.375,0 295.5,43.784 412.583,137.733c60.166,48.225 114.458,104.5 167,158.942c47.542,49.275 96.792,100.258 149.917,144.891c110.75,109.584 250.5,188.117 372.875,253.134c8,4.233 18.167,9.283 29.708,15.017c66.083,32.8 176.75,87.65 173.417,139.117c-1.458,23.242 -24.5,42.242 -70.458,58.067c-124.666,43.008 -253.75,76.542 -378.5,108.967c-174.333,45.292 -354.5,92.125 -525.166,165.45c-181.209,77.958 -303.292,163.367 -384.167,268.884c-73.833,96.267 -121.041,210 -166.667,319.941l-13.375,32.225c-118,282.308 -306.708,488.675 -560.875,613.3c-24.424,11.972 -52.627,24.396 -83.479,36.458l-18.747,0c37.058,-13.914 70.768,-28.516 99.309,-42.5c252.667,-123.875 440.25,-329.1 557.625,-609.858l13.333,-32.15c45.833,-110.433 93.167,-224.567 167.583,-321.533c81.542,-106.441 204.5,-192.542 386.875,-270.908c171.042,-73.567 351.542,-120.442 526.125,-165.816c124.583,-32.392 253.5,-65.875 378,-108.8c42.5,-14.65 64.625,-32.192 65.916,-52.125c3,-47 -105.125,-100.667 -169.75,-132.692c-11.667,-5.783 -21.833,-10.866 -29.875,-15.1c-122.708,-65.225 -263.042,-144.084 -374.166,-254.109c-53.25,-44.675 -102.542,-95.783 -150.25,-145.183c-52.416,-54.275 -106.625,-110.433 -166.333,-158.366c-115.875,-92.975 -245.709,-136.267 -408.458,-136.267c-4.625,0 -9.209,0.042 -13.75,0.116c-427.333,6.308 -700.375,102.908 -811.458,287.15c-77.125,127.933 -47.25,270.758 -15.708,422c27.292,130.491 55.459,265.425 8.792,390.341c-55.791,149.333 -171.792,247.717 -283.916,342.85c-66.125,56.158 -134.542,114.183 -190.5,182.375c-149.5,182.05 -240.375,457.85 -226.125,686.2c9.43,56.185 31.413,101.031 65.761,134.375l-8.326,0Zm3494.899,-105.591c-42.614,19.542 -92.318,30.624 -135.542,34.758c-19.041,1.875 -37.917,2.792 -55.916,2.792c-120.917,0 -211.083,-41.75 -260.917,-120.958l-0.459,-1.125c-12.541,-61.292 0,-117.333 36.375,-162.108c48.958,-60.217 140.708,-97.575 239.417,-97.575c57.53,0 123.482,13.808 177.042,47.499l0,7.988c-52.983,-34.661 -119.327,-48.812 -177.042,-48.812c-96.708,0 -186.542,36.458 -234.208,95.133c-34.917,43.042 -47.125,96.917 -35.167,155.917c61.375,97 172.458,117.375 254.959,117.375c17.833,0 36.375,-0.917 55.25,-2.792c43.573,-4.224 93.806,-15.476 136.208,-35.421l0,7.33Zm-6583.333,-3282.864c137.195,68.243 267.668,234.93 314.767,358.246c51.358,134.4 53.592,276 55.75,412.967c1.992,127.6 4.067,259.558 46.467,383.783c16.192,47.45 35.154,95.092 53.467,141.2c31.25,78.492 63.558,159.625 83.942,243.891c34.058,141.033 13.475,263.717 -27.95,404.583c-3.625,12.367 -7.367,25.433 -11.275,38.983c-37.35,130.083 -88.542,308.266 -187.742,393.15c-31.208,26.733 -66.817,40.283 -105.833,40.283c-79.604,0 -159.943,-56.709 -221.592,-103.195l0,-42.661l6.708,5.673c59.567,45.167 140.667,106.567 214.883,106.567c31.25,0 58.758,-10.533 84.108,-32.225c91.508,-78.325 141.067,-250.892 177.283,-376.908c3.908,-13.633 7.65,-26.733 11.308,-39.183c41.058,-139.533 59.942,-252.975 27.508,-387.167c-19.775,-81.95 -51.633,-161.95 -82.433,-239.342c-18.517,-46.467 -37.642,-94.525 -54.083,-142.783c-44.108,-129.233 -46.221,-263.917 -48.304,-394.125c-2.071,-134.034 -4.263,-272.625 -53.462,-401.492c-42.523,-111.242 -162.328,-262.888 -283.517,-331.438l-0,-38.809Zm0,202.465c80.485,23.378 147.99,108.744 183.017,193.457c45.942,111.209 43.208,233.325 35.725,327.275c-11.233,140.258 -16.6,258.058 23.879,390.175c16.688,54.325 37.038,108.442 56.729,160.767c25.304,67.183 51.433,136.6 70.067,207.358c54.367,206.625 14.242,543.742 -202.633,639.325l-0.942,0.242c-8.95,1.142 -18.1,1.708 -27.133,1.708c-49.51,0 -95.198,-16.818 -138.708,-41.174l0,-7.719c43.68,24.878 89.411,42.185 138.708,42.185c8.583,0 17.292,-0.533 25.833,-1.591c213.058,-94.317 252.117,-427.083 198.408,-631.267c-18.558,-70.392 -44.642,-139.692 -69.867,-206.667c-19.733,-52.45 -40.129,-106.683 -56.842,-161.209c-40.858,-133.225 -35.483,-251.675 -24.217,-392.667c7.45,-93.216 10.175,-214.308 -35.233,-324.133c-34.068,-82.521 -99.292,-165.652 -176.792,-189.095l-0,-6.97Zm-0,1060.271c120.345,5.123 189.765,181.226 200.346,276.177c7.287,65.425 -2.563,162.309 -54.154,220.175c-27.142,30.391 -61.975,45.817 -103.558,45.817c-6.267,0 -12.692,-0.367 -19.2,-1.058c-7.857,-0.848 -15.673,-2.085 -23.433,-3.684l0,-6.847c7.987,1.688 16.034,2.984 24.125,3.857c6.258,0.65 12.492,1.017 18.508,1.017c39.633,0 72.758,-14.65 98.55,-43.583c50.133,-56.192 59.617,-150.917 52.492,-214.958c-10.341,-92.817 -77.548,-265.003 -193.675,-270.189l0,-6.722Zm4547.25,2108.386l-0.333,-0.083c-78.542,-14.583 -111.25,-27.125 -143.583,-102.375c-12.042,-74.329 21.75,-171.792 48.917,-250.175c4.75,-13.592 9.208,-26.533 13.125,-38.575c9.417,-28.408 18.542,-57.458 27.334,-85.533c17.083,-54.283 34.666,-110.267 54.833,-164.55c58.917,-157.8 143,-276.9 264.667,-374.8c149.25,-95.617 364.75,-157.267 549.458,-157.267c150.25,0 276.291,39.308 364.666,113.65c157.417,132.483 -7.958,361.608 -96.75,484.742l-0.583,0.808c-97.166,134.608 -211.958,286.45 -345.458,385.242c-134.167,99.375 -279.459,155.125 -457.333,175.542c-98.792,11.417 -196.292,13.125 -278.667,13.375l-0.292,0Zm814.417,-1166.642c-183.5,0 -397.584,61.233 -545.542,156.008c-122,98.225 -202.958,212.925 -262.209,371.7c-20.208,54.033 -37.75,110.025 -54.791,164.142c-8.875,28.158 -17.959,57.217 -27.334,85.7c-4,12.042 -8.458,25.058 -13.167,38.65c-26.958,77.65 -60.417,174.317 -48.917,246.108c30.917,71.667 60.792,83.25 138.167,97.542c82.042,-0.125 179.208,-1.917 277.583,-13.25c176.625,-20.25 320.958,-75.583 454.125,-174.25c132.708,-98.208 247.125,-249.658 344,-383.767l0.542,-0.817c87.583,-121.333 250.583,-347.208 97.917,-475.667c-87.167,-73.325 -211.75,-112.1 -360.375,-112.1Zm-556.542,1032.267l-0.083,0c-128.167,0 -208.666,-56.875 -232.75,-164.542c-0.625,-250.008 91.417,-564.016 351.417,-697.6c104.708,-53.834 225.167,-83.458 339.25,-83.458c102.708,0 247.333,24.292 353.042,140.1l0.583,0.892c77.042,172.283 -48.125,391.767 -372.166,652.358c-85.042,63.208 -277.5,152.25 -439.292,152.25Zm457.833,-938.883c-113.042,0 -232.417,29.375 -336.25,82.725c-257.333,132.2 -348.375,443.558 -347.75,690.867c29.375,130.958 139.167,158.625 226.083,158.625c160.333,0 351.083,-88.292 435.292,-150.958c320.916,-258.067 445.583,-474.7 370.375,-643.725c-104,-113.65 -246.5,-137.533 -347.75,-137.533Zm-375.458,815.925c-100.209,0 -166.5,-44.583 -197.208,-132.575c-29.792,-225.425 80.083,-449.709 266.916,-546.1c77.834,-40.125 188.417,-66.042 281.833,-66.042c83.75,0 195.167,19.733 250.25,113.65c108,184.367 -139.417,429.4 -276.042,519.242c-78.542,51.533 -211,111.825 -325.75,111.825Zm351.542,-738.008c-92.458,0 -201.833,25.642 -278.708,65.308c-184.417,95.133 -292.833,316.65 -263.542,538.575c29.459,84.333 93.667,127.375 190.708,127.375c113.25,0 244.292,-59.667 322.084,-110.767c134.917,-88.625 379.5,-330 273.917,-510.133c-53.459,-91.192 -162.417,-110.358 -244.459,-110.358Zm-268.375,579.875c-88.166,0 -140.458,-43.775 -147.208,-123.208c-5.875,-77.8 26.417,-159.092 90.958,-228.842c70.709,-76.492 167.875,-123.983 253.583,-123.983c59.584,0 140.625,22.342 188.542,128.625l0.334,0.733l0,0.733c-2.917,148.275 -127.834,259.683 -233.958,309.975c-47.542,22.542 -104.417,35.967 -152.25,35.967Zm197.333,-469.317c-83.916,0 -179.208,46.717 -248.708,121.825c-63.209,68.358 -94.875,147.792 -89.167,223.717c8.292,96.758 80.959,117.025 140.542,117.025c46.875,0 102.792,-13.183 149.417,-35.317c104.167,-49.4 226.792,-158.45 230.125,-303.225c-46.542,-102.458 -124.75,-124.025 -182.209,-124.025Zm-2840.166,538.408c-93.342,0 -101.483,-150.959 -106.892,-250.808c-0.775,-14.158 -1.467,-27.183 -2.367,-38.417c-4.15,-118.975 -36.575,-246.5 -88.9,-350.092c-12.783,-25.308 -26.617,-50.583 -41.267,-77.317c-59.2,-108.192 -120.442,-220.05 -115.275,-341.058c4.517,-106.608 36.417,-209.35 67.308,-308.717c11.183,-36.016 22.742,-73.2 32.792,-109.983c44.967,-164.35 44.517,-316.733 -1.3,-452.883c-22.342,-66.45 -52.9,-130.817 -82.441,-193.033c-29.504,-62.133 -59.979,-126.341 -82.392,-192.791l-0.25,-0.692l0.083,-0.775c1.054,-8.625 1.95,-16.967 2.808,-25.025c6.958,-64.208 11.958,-110.592 70.025,-162.925c50.459,-45.492 118.575,-75.883 202.475,-90.325c68.158,-11.758 136.433,-13.392 200.075,-13.392c17.25,0 34.509,0.167 51.758,0.283c17.25,0.125 34.5,0.25 51.758,0.25c52.292,0 113.875,-1.1 174.25,-9.4c354.042,-48.625 576.542,-272.5 812.042,-509.525c160.875,-161.908 378.916,-246.133 589.75,-327.55c112.292,-43.383 228.375,-88.217 333.417,-144.05c52.5,-29.091 114.834,-46.467 166.75,-46.467c48.666,0 85.042,14.65 105.292,42.358c22,30.075 24.166,73.733 6.541,129.8l-0.5,0.941c-50.375,70.109 -122.25,118.367 -191.75,165.075c-52.625,35.358 -107.083,71.9 -151.583,117.634c-93.75,98.958 -133.25,242.35 -111.25,403.692c3.083,22.3 7.25,45.366 11.625,69.825c20.75,115.192 44.292,245.808 -46.792,333.817c-92.042,77.642 -204.333,128.259 -313.083,177.208c-143.375,64.617 -291.667,131.425 -393.208,260.658c-89.959,114.509 -112.209,245.367 -69.917,411.783c5.292,20.958 11.333,42.525 17.083,63.4c29.708,106.691 60.333,217.042 27.583,326.575c-56.041,187.75 -232.583,277.383 -403.25,364.058c-89.25,45.284 -181.5,92.159 -252.25,151.934c-97.334,82.233 -152.004,195.433 -204.917,304.891c-52.833,109.375 -107.417,222.492 -204.55,304.367c-22.217,11.225 -41.95,16.675 -59.283,16.675Zm-414.142,-2316.525c22.292,65.8 52.567,129.6 81.825,191.325c29.658,62.417 60.258,126.95 82.767,193.767c46.258,137.45 46.75,291.142 1.417,456.825c-10.083,36.867 -21.642,74.142 -32.833,110.192c-30.758,98.958 -62.542,201.292 -67.058,307.008c-5.083,119.142 55.708,230.142 114.5,337.525c14.65,26.817 28.525,52.125 41.342,77.55c53.55,105.958 85.367,231.208 89.642,352.708c0.858,11.15 1.592,24.25 2.312,38.408c5.296,97.408 13.229,244.467 100.229,244.467c16.275,0 34.992,-5.208 55.667,-15.467c95.333,-80.567 149.625,-193.033 202.125,-301.75c53.204,-110.108 108.208,-223.925 206.625,-307.133c71.375,-60.258 163.958,-107.3 253.5,-152.75c169.459,-86.058 344.667,-175.008 399.917,-359.983c32.25,-107.708 1.792,-217.083 -27.583,-322.875c-5.792,-20.875 -11.791,-42.525 -17.167,-63.558c-42.792,-168.625 -20.167,-301.317 71.209,-417.567c102.542,-130.533 251.542,-197.708 395.667,-262.608c108.333,-48.792 220.208,-99.208 311.375,-176.108c88.291,-85.367 65.083,-214.075 44.667,-327.642c-4.416,-24.491 -8.625,-47.641 -11.625,-70.066c-22.334,-163.45 17.791,-308.8 112.958,-409.259c45.083,-46.267 99.833,-83.05 152.75,-118.617c68.833,-46.216 140.042,-94.075 189.667,-162.917c16.875,-53.675 14.917,-95.133 -5.583,-123.292c-23.958,-32.759 -67.583,-39.634 -99.958,-39.634c-50.792,0 -111.958,17.092 -163.583,45.65c-105.375,56.075 -221.666,101 -334.125,144.408c-210.208,81.183 -427.583,165.167 -587.5,326.017c-236.333,237.867 -459.541,462.517 -815.833,511.475c-60.792,8.333 -122.667,9.433 -175.167,9.433c-17.292,0 -34.55,-0.117 -51.804,-0.242c-17.246,-0.125 -34.504,-0.242 -51.713,-0.242c-63.358,0 -131.271,1.583 -198.933,13.267c-82.642,14.242 -149.617,44.066 -199.1,88.658c-56.192,50.616 -61.075,95.95 -67.867,158.692c-0.858,7.858 -1.75,15.95 -2.725,24.333Zm545.733,1684.45l-5.817,-0.125c-172.45,-21.117 -283.904,-242.183 -313.967,-309.408c-64.091,-143.392 -41.908,-279.175 -11.317,-417.15c32.958,-148.642 67.017,-302.292 40.45,-462.242c-13.392,-80.65 -36.583,-160.767 -59,-238.283c-16.483,-56.925 -33.533,-115.8 -46.717,-174.884l-0.283,-1.708c-18.508,-156.983 85.942,-255.416 310.425,-292.566c50.008,-8.259 100.383,-14.892 149.092,-21.275c124.709,-16.4 242.459,-31.866 360.75,-73.166c188.917,-66 327.708,-186.642 474.666,-314.408c60.125,-52.292 122.292,-106.366 188.209,-156.333c112.166,-93.425 256.375,-153.2 395.041,-163.534c52.417,-3.867 92.667,8.184 120.209,35.892c48.583,48.95 48.166,137.283 47.833,215.167c-0.083,24.5 -0.25,47.608 1.042,68.642c2.791,44.725 11,91.192 18.958,136.067c15.5,87.492 31.584,177.984 10.834,267.625c-32.625,141.475 -162.083,209.759 -276.375,269.975l-34.75,18.308c-232.792,122.6 -522.584,275.108 -510.833,569.092c2.667,68.117 21.125,135.542 38.958,200.725c18.917,69.3 38.542,140.95 40.333,215.5c3,121.908 -69.667,202.183 -144.458,273.966c-72.958,79.058 -197.875,124.55 -308.125,164.667c-36.208,13.192 -70.416,25.642 -100.75,38.542c-33.375,14.158 -68.583,32.875 -105.833,52.692c-90.875,48.3 -184.833,98.225 -278.575,98.225Zm-2.684,-33.609l2.684,0.042c85.408,0 175.617,-47.975 262.908,-94.367c37.917,-20.183 73.709,-39.225 108.417,-53.95c31.167,-13.183 65.75,-25.8 102.375,-39.15c106.875,-38.9 227.917,-82.967 295.333,-156.25l0.75,-0.766c72.375,-69.417 137.125,-140.708 134.458,-249.192c-1.708,-70.475 -20.75,-140.091 -39.125,-207.434c-18.375,-67.017 -37.333,-136.358 -40.167,-208.292c-12.542,-315.192 300.375,-479.9 528.792,-600.183l34.666,-18.309c113.209,-59.65 230.167,-121.341 259.375,-247.8c19.125,-82.975 3.75,-170.008 -11.166,-254.192c-8.125,-45.817 -16.5,-93.225 -19.417,-139.817c-1.334,-22.175 -1.25,-45.858 -1.167,-70.884c0.333,-71.366 0.75,-152.258 -38.083,-191.325c-20.583,-20.75 -51.417,-29.25 -93.916,-26.075c-131.917,9.8 -269.209,66.808 -376.792,156.325c-65.583,49.767 -127.25,103.433 -187.042,155.4c-142.875,124.183 -290.542,252.642 -485.542,320.717c-121.541,42.483 -246.541,58.883 -367.458,74.791c-48.417,6.342 -98.496,12.933 -147.979,21.117c-205.963,34.058 -298.454,117.35 -282.704,254.642c12.933,57.733 29.742,115.8 46.017,171.991c22.667,78.45 46.142,159.55 59.858,242.109c27.667,166.383 -7.125,323.325 -40.775,475.058c-30.475,137.325 -50.784,261.917 9.2,396.117c58.025,129.883 163.733,274.008 286.5,289.675Zm186.592,-254.558l-0.042,0c-78.042,-0.042 -152.333,-15.95 -227.083,-48.75l-0.892,-0.567c-99.817,-90.05 -140.708,-187.342 -136.642,-325.4c1.591,-54.033 7.25,-108.683 12.742,-161.5c7.767,-75.233 15.825,-153.033 12.208,-230.1c-4.404,-93.383 -23.767,-186.242 -42.483,-276c-11.317,-54.242 -22.992,-110.317 -31.292,-165.975c-22.3,-256.959 242.392,-311.367 455.067,-355.067c55.375,-11.392 107.667,-22.133 151.833,-35.517c221,-66.983 387.167,-188.683 563.042,-317.55c30.167,-22.092 60.792,-44.475 92.042,-66.892c75.333,-54.083 174.208,-116.133 270.5,-116.133c31.708,0 61.75,6.842 89.083,20.383c93.042,46.025 136.583,200.2 145.542,318.2c16.833,221.109 -162.625,323 -336.209,421.467c-71.541,40.608 -139.083,78.984 -193.5,125.167c-110.042,93.3 -217.167,201.208 -256.125,357.908c-24.334,97.9 -0.834,195.675 21.875,290.283c4.167,17.5 8.375,34.95 12.25,52.367c22.208,99.325 36.542,225.792 -50.083,322.917c-85.208,95.583 -233.666,132.408 -352.958,162.033l-14.25,3.533c-67.958,16.933 -128.375,25.191 -184.625,25.191Zm-223.908,-54.692c73.7,32.266 146.95,47.933 223.867,47.933l0.042,0c55.708,0 115.583,-8.133 183,-24.942l14.25,-3.542c118.375,-29.375 265.792,-65.958 349.583,-159.992c84.625,-94.85 70.375,-219.2 48.542,-316.975c-3.875,-17.375 -8.084,-34.792 -12.25,-52.25c-22.875,-95.375 -46.583,-194.008 -21.833,-293.492c39.417,-158.533 147.417,-267.375 258.292,-361.408c54.959,-46.592 122.709,-85.084 194.584,-125.859c171.708,-97.491 349.291,-198.283 332.75,-415.117c-8.833,-116.258 -51.25,-267.908 -141.833,-312.708c-26.375,-13.058 -55.417,-19.692 -86.083,-19.692c-94.416,0 -192.083,61.4 -266.625,114.908c-31.25,22.375 -61.75,44.759 -91.958,66.85c-176.375,129.192 -342.959,251.225 -565.042,318.525c-44.5,13.509 -96.917,24.25 -152.417,35.684c-221.05,45.408 -471.533,96.883 -449.767,347.658c8.217,55.3 19.9,111.292 31.167,165.408c18.8,90.042 38.209,183.142 42.642,277.058c3.625,77.55 -4.433,155.6 -12.283,231.117c-5.458,52.692 -11.071,107.216 -12.658,161.008c-3.983,135.667 36.092,231.366 134.033,319.825Zm369.492,-152.95l-0.042,0c-147.379,0 -258.375,-71.742 -296.916,-191.933c-22.525,-70.4 -28.625,-145.142 -34.525,-217.408c-3.3,-40.817 -6.758,-83.05 -13.15,-123.783c-10.862,-69.575 -26.4,-139.525 -41.458,-207.108c-10.092,-45.292 -20.508,-92.125 -29.417,-138.434c-41.592,-271.642 175.717,-338.458 367.425,-397.375c216.667,-66.608 395.667,-126.508 562.917,-239.058c8.458,-5.692 17.75,-12.042 27.667,-18.875c85.792,-58.8 229.25,-157.267 341.625,-157.267c69.583,0 118.833,37.517 146.25,111.483c70.375,189.583 -129.542,314.659 -275.542,405.967c-27.583,17.258 -53.625,33.575 -75.875,48.992c-126.959,88.016 -346.584,274.942 -391.167,537.841c-10.209,59.975 -0.875,129.6 8.167,196.942c19,142.008 38.708,288.817 -122.333,355.592c-54.292,22.542 -114.375,34.425 -173.625,34.425Zm884.125,-1684.533c-110.25,0 -252.75,97.742 -337.834,156.134c-10,6.833 -19.25,13.183 -27.708,18.875c-168.042,113.083 -347.5,173.141 -564.708,239.908c-189.083,58.15 -403.442,124.025 -362.792,389.775c8.867,46.142 19.283,92.892 29.333,138.142c15.1,67.708 30.683,137.733 41.583,207.516c6.433,41.017 9.892,83.333 13.225,124.267c5.858,71.9 11.883,146.283 34.233,215.942c37.583,117.275 146.204,187.258 290.5,187.258l0.042,0c58.417,0 117.584,-11.717 171.084,-33.892c156.25,-64.825 137.75,-202.642 118.25,-348.55c-9.125,-67.792 -18.542,-137.941 -8.167,-198.933c45,-265.3 266.167,-453.616 394,-542.241c22.375,-15.5 48.5,-31.858 76.167,-49.15c144.041,-90.092 341.208,-213.467 272.792,-397.909c-26.375,-71.092 -73.5,-107.142 -140,-107.142Zm-899.792,1246.783c-129.333,-0.034 -252,-358.067 -271.708,-449.542c-22.375,-245.483 260.667,-317.342 488.083,-375.042c62.875,-15.95 122.166,-31 167.625,-48.217c29.917,-11.267 65.958,-30.758 104.167,-51.35c76.875,-41.5 164,-88.5 235.75,-88.5c12.209,0 23.875,1.383 34.458,4.108c15.208,3.95 24.25,11.642 26.75,22.95c11.708,52.9 -132.958,172.525 -187.458,217.533c-8.5,7.033 -14.583,12.125 -17.292,14.567c-184.75,169.759 -340.042,384.967 -474.709,657.917c-31.291,63.433 -66.833,95.575 -105.667,95.575Zm723.917,-1005.933c-70.041,0 -156.375,46.583 -232.583,87.683c-38.375,20.708 -74.667,40.283 -104.958,51.758c-45.792,17.333 -105.292,32.434 -168.333,48.425c-225,57.084 -504.917,128.134 -483.125,367.508c26.25,121.909 147.625,443.808 265.083,443.85c36.083,0 69.584,-30.925 99.667,-91.842c135,-273.717 290.792,-489.583 476.167,-659.909c2.791,-2.567 9.041,-7.691 17.583,-14.775c48.5,-40.075 196.042,-162.025 185.125,-210.892c-1.875,-8.75 -9.042,-14.608 -21.792,-17.908c-10.125,-2.6 -21.083,-3.9 -32.833,-3.9Zm2619.167,853.916c-298.167,0 -643.959,-121.742 -698.334,-388.95c-25.208,-136.883 66.917,-286.258 160.5,-414.392c91.959,-125.975 184.458,-246.092 304.333,-330.325c66.667,-46.792 171.625,-96.842 266.458,-96.842c59.084,0 107.333,19.167 143.292,56.925c54.375,87.608 69.667,188.442 84.417,285.933c7.084,47.158 14.458,95.942 26.125,142.417c9.084,33.241 19.292,67.3 29.125,100.258c37.917,127.275 77.125,258.908 72.584,392.416c-29.542,152.142 -156.667,243.692 -348.709,251.75c-12.958,0.525 -26.375,0.808 -39.791,0.808Zm32.958,-1223.792c-93.208,-0 -196.792,49.4 -262.542,95.658c-119.125,83.625 -211.25,203.25 -302.875,328.775c-92.708,126.958 -184.084,274.825 -159.292,409.1c53.625,263.508 396.166,383.55 691.75,383.55c13.333,0 26.666,-0.292 39.458,-0.817c188.791,-7.933 313.542,-97.491 342.458,-245.808c4.459,-131.875 -34.666,-262.941 -72.417,-389.733c-9.875,-32.958 -20.041,-67.091 -29.167,-100.458c-11.791,-46.833 -19.208,-95.783 -26.333,-143.108c-14.583,-96.842 -29.708,-196.942 -83.042,-282.841c-34.166,-35.842 -80.791,-54.317 -138,-54.317Zm-89.75,1140.017c-220,0 -480.833,-102.3 -533.875,-326.825l-0.083,-0.45l0,-0.45c7.833,-240.233 168.125,-493.933 389.833,-616.9c37.5,-20.833 94.958,-45.65 155.584,-45.65c59.25,0 106.75,23.717 141.291,70.433c65.583,88.825 96.75,209.592 124.25,316.117c4.958,19.167 9.833,38.092 14.791,56.483c3.125,11.475 6.375,23.108 9.625,34.908c31,111.534 66.25,238 24.917,349.525c-35.417,95.792 -124.625,148.317 -272.625,160.65c-17.417,1.425 -35.5,2.159 -53.708,2.159Zm-527.208,-327.967c52.416,220.708 310,321.25 527.208,321.25c18.041,0 35.958,-0.733 53.125,-2.158c145.167,-12.042 232.5,-63.192 266.916,-156.25c40.542,-109.534 5.708,-234.859 -25.042,-345.417c-3.291,-11.8 -6.541,-23.442 -9.625,-34.917c-5.042,-18.425 -9.917,-37.392 -14.875,-56.558c-28.667,-111.158 -58.375,-226.075 -123.125,-313.842c-33.209,-44.917 -78.959,-67.667 -135.917,-67.667c-59.167,0 -115.5,24.333 -152.334,44.758c-219.667,121.825 -378.416,372.925 -386.333,610.8Zm482.917,216.15c-166.417,0 -351.959,-104.05 -361.5,-272.183c6.917,-165.317 134.292,-378.7 305.833,-421.017c16.208,-3.983 32.25,-6.025 47.541,-6.025c184.458,0 256.667,290.241 268.959,443.692c5.917,73.034 -11.958,132.725 -53.167,177.45c-46.292,50.367 -120,78.083 -207.667,78.083Zm-8.125,-692.508c-14.833,0 -30.208,1.95 -45.917,5.817c-168.708,41.625 -293.958,251.834 -300.791,414.475c9.292,163.859 191.416,265.5 354.833,265.5c85.792,0 157.792,-26.975 202.791,-75.925c39.792,-43.258 57.125,-101.242 51.375,-172.325c-12.125,-151.325 -82.708,-437.542 -262.292,-437.542Zm-31,518.434l-0.083,0c-54.792,0 -125,-31.292 -142.833,-119.383c-6.5,-90.334 53.959,-171.875 137.625,-186.034l0.458,-0.083l0.583,0.083c67.208,11.142 121.833,67.992 135.917,141.433c8.708,45.859 0.167,86.059 -24.75,116.334c-24.583,29.825 -64.542,47.65 -106.917,47.65Zm-4.833,-298.709c-79.916,13.875 -137.583,92.125 -131.5,178.425c17,83.7 84.083,113.567 136.25,113.567l0.083,0c40.333,0 78.416,-16.883 101.791,-45.208c23.583,-28.683 31.667,-66.975 23.292,-110.792c-13.542,-70.475 -65.708,-125.042 -129.917,-135.992Zm-2529.375,2669.4l-0.083,0c-150.042,-0.083 -232.417,-75.746 -238.167,-219.083c-2.042,-133.542 31.417,-266.925 96.875,-385.742c59.084,-107.258 148.875,-190.675 235.708,-271.275c97.917,-90.95 199.209,-184.983 254.208,-312.542c62.458,-144.742 41.667,-306.4 16.625,-431.033c-2.916,-14.484 -6.041,-29.259 -9.208,-44.234c-26.208,-123.408 -55.917,-263.3 11.667,-377.517c138.5,-234.333 523.5,-252.567 638.166,-252.567c28.334,0 56.375,0.892 83.584,2.642c298.083,19.083 483.958,201.092 679.208,419.108c8.292,9.283 16.916,18.642 25.625,28.2c86.833,94.725 185.125,202.067 119.208,329.716l-0.875,1.058c-110.208,90.25 -230.416,147.25 -354.167,202.433l-17.75,7.892c-252.792,112.55 -514.083,228.925 -638.834,490.759l-5.875,14.242c-105.458,254.808 -205.167,495.367 -445.292,651.275c-87.417,56.667 -287.042,146.666 -450.625,146.666Zm1005.791,-2287.275c-113.791,0 -495.708,17.983 -632.416,249.267c-66.167,111.975 -36.792,250.483 -10.917,372.717c3.291,14.975 6.375,29.791 9.292,44.275c25.25,125.608 46.166,288.575 -17,435.058c-55.667,128.825 -157.375,223.35 -255.875,314.775c-86.417,80.325 -175.834,163.333 -234.417,269.617c-64.834,117.842 -98.042,250 -95.958,382.317c5.583,140.963 83.5,212.5 231.417,212.5l0.083,0c162.208,0 360.208,-89.287 446.958,-145.579c238.417,-154.721 337.709,-394.388 442.792,-648.171l5.917,-14.408c125.917,-264.283 388.375,-381.142 642.167,-494.175l17.833,-7.9c123.125,-54.892 242.667,-111.567 352.042,-201.05c63.25,-123.208 -33.25,-228.517 -118.375,-321.492c-8.792,-9.517 -17.417,-18.959 -25.75,-28.233c-194.25,-216.883 -379.125,-397.95 -674.625,-416.917c-27,-1.708 -55,-2.6 -83.167,-2.6Zm-899.917,2148.608l-0.083,0c-104.25,0 -166.542,-56.167 -185.083,-167c-25.667,-242.842 134.458,-402.675 289.333,-557.292c29.083,-29.058 59.167,-59.083 87.083,-88.908c112.209,-119.633 165.542,-233.808 167.583,-359.292c1.625,-98.758 -16.458,-197.15 -33.958,-292.283c-8.292,-45.042 -16.833,-91.633 -23.166,-137.733c-20.125,-144.817 -6.125,-263.792 127.25,-373.783c93.041,-55.575 204.583,-93.134 323,-109.008c42.167,-5.65 85.125,-8.5 127.625,-8.5c208,0 390.792,66.45 514.708,187.133c109.709,80.65 206.542,226.967 253.75,336.142c46.875,108.6 -9.542,210.733 -167.708,303.55c-68.541,40.2 -141.708,76.492 -212.5,111.567c-147.292,73.083 -299.709,148.641 -420.583,264.45c-97.084,92.975 -147.209,217.975 -195.625,338.867c-48.417,120.683 -98.375,245.442 -195.167,340.817c-93.25,85.292 -302.708,211.275 -456.459,211.275Zm879.583,-2087.083c-42.167,0 -84.833,2.842 -126.708,8.458c-117.542,15.708 -228.208,53.017 -320.084,107.833c-130.541,107.7 -144.208,224.809 -124.5,367.35c6.333,45.933 14.875,92.442 23.167,137.45c17.583,95.458 35.75,194.175 34.125,293.617c-2.125,127.242 -56,242.842 -169.458,363.775c-28,29.9 -58.084,59.975 -87.209,89.067c-153.75,153.525 -312.75,312.217 -287.458,551.558c17.917,106.933 77.958,161.309 178.458,161.309l0.083,0c151.958,0 359.458,-125.017 451.917,-209.492c95.625,-94.317 145.333,-218.425 193.458,-338.459c48.709,-121.542 99.083,-247.233 197.25,-341.225c121.667,-116.5 274.5,-192.3 422.292,-265.583c70.625,-35.033 143.708,-71.292 212,-111.375c154.75,-90.775 210.25,-190.058 164.958,-295.084c-46.792,-108.317 -142.833,-253.458 -251.875,-333.658c-123.041,-119.75 -304.208,-185.541 -510.417,-185.541Zm-727.791,1873.208c-57.042,0 -97.333,-27.267 -116.375,-78.7l-0.25,-0.975c-12.458,-209.875 163.833,-340.083 319.333,-454.958c14.166,-10.45 28.083,-20.75 41.667,-30.958c116.708,-87.65 106.541,-157.266 86.25,-295.983l-1.042,-7.2c-14.792,-101.442 -37.125,-200.725 -62.583,-310.708c-51.583,-222.533 -85.708,-468.675 163.5,-573c86.834,-36.342 184.875,-55.542 283.625,-55.542c109.583,0 216.958,23.392 310.375,67.625c124.583,58.958 279.208,204.017 322.417,344.725c21.5,69.867 15.625,133.833 -17.417,190.15c-54.208,92.2 -158.292,148.758 -250.25,198.683c-8.458,4.6 -16.833,9.2 -25.125,13.717c-71.292,39.142 -145.042,76.5 -216.334,112.592c-39.542,20.058 -80.458,40.767 -120.5,61.559c-23.458,12.167 -46.084,23.158 -67.959,33.733c-85.708,41.55 -159.666,77.392 -246.75,165.492c-55.833,63.15 -51.125,127.642 -46.542,189.975c3,40.45 6,82.275 -7.667,122.808c-36.042,106.117 -97.667,191.65 -178.375,247.308c-41.75,28.817 -108.333,59.658 -170,59.658Zm-109.958,-80.567c18.333,48.992 55.333,73.808 109.958,73.808c60.125,0 125.333,-30.192 166.25,-58.433c79.416,-54.85 140.208,-139.242 175.791,-243.975c13.25,-39.225 10.417,-78.533 7.333,-120.117c-4.667,-63.717 -9.542,-129.683 48.25,-195.067c88.042,-89.033 166.167,-126.875 248.792,-166.95c21.875,-10.583 44.416,-21.483 67.75,-33.65c40.042,-20.8 81,-41.55 120.625,-61.567c71.208,-36.092 144.958,-73.408 216.083,-112.508c8.292,-4.517 16.75,-9.117 25.209,-13.717c91.167,-49.517 194.416,-105.592 247.625,-196.208c32.084,-54.6 37.709,-116.733 16.875,-184.733c-42.75,-138.908 -195.75,-282.3 -319.042,-340.65c-92.5,-43.783 -198.792,-66.942 -307.416,-66.942c-97.833,0 -195.084,19.008 -281.042,55.017c-244.375,102.291 -210.5,345.416 -159.583,565.266c25.583,110.108 47.875,209.55 62.666,311.242l1.083,7.2c20,136.883 31,212.275 -88.791,302.325c-13.667,10.217 -27.583,20.508 -41.75,31.008c-154.042,113.766 -328.542,242.758 -316.667,448.65Zm684.5,-822.475c-90.834,0 -131.917,-73.358 -179.917,-177.083c-32.5,-70.067 -48.208,-146.6 -63.333,-220.658c-3.917,-19.292 -7.875,-38.575 -12.125,-57.784c-10.75,-102.616 13.333,-187.25 71.458,-251.95c67.875,-75.558 182.708,-118.9 314.916,-118.9c241,0 500.75,143.391 518.417,383.383c17.25,233.767 -354.75,380.333 -577.25,430.058c-26.5,8.667 -50.208,12.933 -72.166,12.933Zm131,-819.658c-130.333,0 -243.292,42.525 -309.958,116.7c-56.792,63.192 -80.25,146.075 -69.833,246.375c4.167,18.842 8.167,38.166 12.125,57.5c15.083,73.65 30.708,149.817 62.833,219.2c46.958,101.392 86.917,173.175 173.834,173.175c20.917,0 44.583,-4.275 70.458,-12.7c220.709,-49.358 589.208,-193.883 572.292,-423.091c-17.333,-236.083 -273.875,-377.159 -511.75,-377.159Zm-35.708,687.667c-54.625,0 -100.167,-16.075 -135.417,-47.817c-76.334,-68.559 -105.875,-167.075 -122.958,-245.233c-11.083,-90.375 9.583,-167.933 59.625,-224.575c55.208,-62.5 145.792,-98.342 248.458,-98.342c131.542,0 295.75,63.558 366.375,205.6c27.667,55.708 30.125,111.617 7.167,166.142c-42.958,102.05 -170.875,182.617 -278.625,217.167c-57.541,18.467 -103.542,27.058 -144.625,27.058Zm49.708,-609.259c-100.75,0 -189.5,35.033 -243.458,96.109c-48.667,55.142 -68.792,130.866 -58.042,218.958c16.833,76.859 45.917,174.075 120.75,241.417c34.542,31 77.417,46.058 131.042,46.058c40.375,0 85.708,-8.509 142.583,-26.733c106.292,-34.1 232.333,-113.283 274.5,-213.383c22.125,-52.65 19.75,-106.642 -7,-160.517c-69.333,-139.492 -230.958,-201.908 -360.375,-201.908Zm6.292,449.3c-75.125,0 -159.417,-37.35 -170.917,-142.167c-10.166,-46.875 -1.791,-88.992 24.417,-121.5c31.833,-39.591 89.125,-63.233 153.167,-63.233c80.417,0 150.542,36.009 183.167,93.992c26.875,47.808 28.333,95.05 4.167,136.517c-33.125,56.758 -112.875,96.392 -194,96.392Zm6.667,-320.192c-62.083,0 -117.333,22.709 -147.958,60.717c-24.833,30.883 -32.792,71.084 -23.041,116.25c9.375,85.608 70.833,136.517 164.333,136.517c78.834,0 156.25,-38.292 188.209,-93.1c22.875,-39.267 21.417,-84.15 -4.208,-129.8c-31.417,-55.875 -99.375,-90.584 -177.334,-90.584Zm-3147.991,1658.725c-45.25,0 -97.7,-13.417 -143.883,-36.875c-26.492,-13.325 -189,-124.167 -197.342,-198.792c-1.675,-15.133 3.208,-27.833 14.525,-37.6c19.492,-64.45 126.1,-74.133 188.108,-74.133c61.242,0 124.067,9.033 154.417,18.067c56.117,16.6 101.933,52.817 125.65,99.367c20.788,40.767 23.358,86.175 7.408,131.508c-28.642,81.375 -96.758,98.458 -148.883,98.458Zm-138.592,-340.725c-60.467,0 -164.467,9.192 -181.967,70.308l-0.283,1.058l-0.817,0.65c-10.175,8.383 -14.4,18.967 -12.9,32.308c7.533,67.467 158.858,175.942 193.692,193.608c45.283,22.958 96.592,36.125 140.867,36.125c49.967,0 115.233,-16.334 142.575,-94.075c15.3,-43.45 12.858,-87.075 -7.046,-126.133c-22.904,-45.008 -67.254,-80 -121.617,-96.033c-29.904,-8.867 -91.879,-17.817 -152.504,-17.817Zm3835.5,-2417.325l-0.083,-0c-78.208,0 -135.583,-44.958 -157.417,-123.325c-3.959,-43.867 11.583,-86.025 44.875,-122.442c51.667,-56.675 141.583,-94.725 223.792,-94.725c50.042,0 90.667,14.933 114.334,42.116c20.833,23.842 28.625,56.025 23.333,95.658c-16.083,119.467 -144.125,202.717 -248.834,202.717Zm111.167,-333.775c-80.417,0 -168.375,37.192 -218.833,92.525c-32,35.033 -46.958,75.4 -43.208,116.741c28.459,102.375 106.75,117.8 150.792,117.8l0.083,0c101.959,0 226.542,-80.85 242.167,-196.9c5.042,-37.641 -2.25,-68.033 -21.709,-90.375c-22.375,-25.675 -61.208,-39.792 -109.292,-39.792Zm-3485.458,152.067c-35.708,0 -76.917,-16.833 -88.458,-54.375l-0.167,-0.625l0.083,-0.583c4.25,-69.75 52.25,-94.417 92.208,-94.417c30.5,0 58.666,13.542 73.417,35.333c9,13.417 17.167,36.042 4.542,67.792c-11.541,28.875 -42.791,46.875 -81.625,46.875Zm-81.875,-55.833c10.834,33.958 48.834,49.083 81.875,49.083c28.25,0 62.833,-11.167 75.375,-42.667c9.084,-22.917 7.792,-44.167 -3.833,-61.417c-13.5,-20.042 -39.542,-32.458 -67.875,-32.458c-36.875,0 -81.292,22.917 -85.542,87.458Zm-701.458,-423.783c-35.708,0 -76.917,-16.833 -88.458,-54.375l-0.167,-0.625l0.083,-0.583c4.25,-69.75 52.25,-94.417 92.208,-94.417c30.5,0 58.666,13.542 73.417,35.333c9,13.417 17.167,36.042 4.542,67.792c-11.541,28.875 -42.791,46.875 -81.625,46.875Zm-81.875,-55.833c10.834,33.958 48.834,49.083 81.875,49.083c28.25,0 62.833,-11.167 75.375,-42.667c9.084,-22.917 7.792,-44.167 -3.833,-61.417c-13.5,-20.042 -39.542,-32.458 -67.875,-32.458c-36.875,0 -81.292,22.917 -85.542,87.458Z" style="fill:#fff;"/></svg>